<svg width="256" height="153" viewBox="0 0 256 153" fill="none" xmlns="http://www.w3.org/2000/svg">
<g clip-path="url(#clip0_306_177)">
<path d="M72.3922 55.4386C72.3922 58.575 72.7312 61.1181 73.3246 62.983C74.0027 64.8479 74.8504 66.8823 76.0372 69.0863C76.461 69.7644 76.6306 70.4426 76.6306 71.0359C76.6306 71.8836 76.122 72.7313 75.02 73.579L69.6796 77.1393C68.9167 77.6479 68.1537 77.9022 67.4756 77.9022C66.6279 77.9022 65.7802 77.4783 64.9325 76.7154C63.7458 75.4439 62.7286 74.0876 61.8809 72.7313C61.0332 71.2903 60.1855 69.6797 59.2531 67.73C52.6412 75.5287 44.3339 79.428 34.3312 79.428C27.2107 79.428 21.5312 77.3936 17.3776 73.3247C13.2239 69.2558 11.1047 63.8307 11.1047 57.0492C11.1047 49.8439 13.6478 43.9949 18.8186 39.5869C23.9895 35.179 30.8557 32.975 39.5869 32.975C42.469 32.975 45.4359 33.2293 48.5723 33.6532C51.7087 34.077 54.9299 34.7552 58.3206 35.5181V29.33C58.3206 22.8876 56.9643 18.3949 54.3365 15.7671C51.6239 13.1393 47.0465 11.8677 40.5193 11.8677C37.5524 11.8677 34.5008 12.2068 31.3643 12.9697C28.2279 13.7326 25.1763 14.6651 22.2094 15.8518C20.8531 16.4452 19.8359 16.7843 19.2425 16.9538C18.6491 17.1234 18.2253 17.2081 17.8862 17.2081C16.6994 17.2081 16.1061 16.3605 16.1061 14.5803V10.4267C16.1061 9.07039 16.2756 8.05317 16.6994 7.4598C17.1233 6.86642 17.8862 6.27304 19.0729 5.67966C22.0398 4.15383 25.6001 2.88231 29.7537 1.86509C33.9074 0.763107 38.3153 0.254497 42.9776 0.254497C53.065 0.254497 60.4398 2.54324 65.1869 7.12072C69.8491 11.6982 72.2226 18.6492 72.2226 27.9737V55.4386H72.3922ZM37.9763 68.3234C40.7736 68.3234 43.6557 67.8148 46.7074 66.7975C49.759 65.7803 52.4716 63.9154 54.7604 61.3724C56.1167 59.7618 57.1339 57.9817 57.6425 55.9472C58.1511 53.9128 58.4902 51.4545 58.4902 48.5724V45.0121C56.0319 44.4187 53.4041 43.9101 50.6915 43.5711C47.9789 43.232 45.3511 43.0624 42.7233 43.0624C37.0438 43.0624 32.8902 44.1644 30.0928 46.4532C27.2955 48.7419 25.9392 51.9631 25.9392 56.2015C25.9392 60.1856 26.9564 63.1525 29.0756 65.1869C31.11 67.3061 34.0769 68.3234 37.9763 68.3234ZM106.045 77.4783C104.519 77.4783 103.502 77.224 102.824 76.6307C102.146 76.122 101.552 74.9353 101.044 73.3247L81.1233 7.79887C80.6147 6.1035 80.3604 5.00152 80.3604 4.40814C80.3604 3.05185 81.0385 2.28893 82.3948 2.28893H90.7021C92.3127 2.28893 93.4147 2.54324 94.008 3.13662C94.6862 3.64523 95.1948 4.83198 95.7034 6.44258L109.944 62.5591L123.168 6.44258C123.592 4.74721 124.101 3.64523 124.779 3.13662C125.457 2.62801 126.644 2.28893 128.17 2.28893H134.951C136.562 2.28893 137.664 2.54324 138.342 3.13662C139.02 3.64523 139.613 4.83198 139.952 6.44258L153.346 63.2373L168.011 6.44258C168.519 4.74721 169.113 3.64523 169.706 3.13662C170.384 2.62801 171.486 2.28893 173.012 2.28893H180.895C182.252 2.28893 183.015 2.96708 183.015 4.40814C183.015 4.83198 182.93 5.25582 182.845 5.76443C182.76 6.27304 182.591 6.95119 182.252 7.88364L161.823 73.4095C161.314 75.1048 160.721 76.2068 160.042 76.7154C159.364 77.224 158.262 77.5631 156.821 77.5631H149.531C147.921 77.5631 146.819 77.3088 146.141 76.7154C145.462 76.122 144.869 75.0201 144.53 73.3247L131.391 18.6492L118.337 73.2399C117.913 74.9353 117.404 76.0373 116.726 76.6307C116.048 77.224 114.861 77.4783 113.335 77.4783H106.045ZM214.972 79.7671C210.564 79.7671 206.156 79.2585 201.918 78.2412C197.68 77.224 194.374 76.122 192.17 74.8505C190.813 74.0876 189.881 73.2399 189.542 72.477C189.203 71.7141 189.033 70.8664 189.033 70.1035V65.7803C189.033 64.0002 189.711 63.1525 190.983 63.1525C191.492 63.1525 192 63.2373 192.509 63.4068C193.017 63.5764 193.78 63.9154 194.628 64.2545C197.51 65.526 200.646 66.5432 203.952 67.2214C207.343 67.8995 210.649 68.2386 214.04 68.2386C219.38 68.2386 223.534 67.3062 226.416 65.4413C229.298 63.5764 230.824 60.8638 230.824 57.3883C230.824 55.0148 230.061 53.0651 228.535 51.4545C227.009 49.8439 224.127 48.4028 219.974 47.0466L207.682 43.232C201.494 41.2823 196.917 38.4002 194.119 34.5856C191.322 30.8558 189.881 26.7022 189.881 22.2942C189.881 18.734 190.644 15.5975 192.17 12.885C193.695 10.1724 195.73 7.79887 198.273 5.93397C200.816 3.9843 203.698 2.54324 207.089 1.52602C210.48 0.508802 214.04 0.0849609 217.77 0.0849609C219.635 0.0849609 221.584 0.169729 223.449 0.424034C225.399 0.678338 227.179 1.01741 228.959 1.35648C230.654 1.78033 232.265 2.20417 233.791 2.71278C235.317 3.22138 236.503 3.72999 237.351 4.2386C238.538 4.91675 239.386 5.59489 239.894 6.35781C240.403 7.03595 240.657 7.96841 240.657 9.15516V13.1393C240.657 14.9194 239.979 15.8518 238.707 15.8518C238.029 15.8518 236.927 15.5128 235.486 14.8346C230.654 12.6307 225.229 11.5287 219.211 11.5287C214.379 11.5287 210.564 12.2916 207.937 13.9022C205.309 15.5128 203.952 17.9711 203.952 21.4466C203.952 23.8201 204.8 25.8545 206.495 27.4651C208.191 29.0757 211.327 30.6863 215.82 32.1273L227.857 35.9419C233.96 37.8916 238.368 40.6042 240.996 44.0797C243.624 47.5552 244.895 51.5393 244.895 55.9472C244.895 59.5922 244.133 62.8982 242.691 65.7803C241.166 68.6624 239.131 71.2055 236.503 73.2399C233.876 75.3591 230.739 76.885 227.094 77.9869C223.28 79.1737 219.295 79.7671 214.972 79.7671Z" fill="white"/>
<path d="M230.993 120.964C203.105 141.563 162.585 152.498 127.746 152.498C78.9193 152.498 34.9245 134.443 1.69541 104.435C-0.932403 102.061 1.44111 98.8399 4.57753 100.705C40.5193 121.558 84.853 134.188 130.713 134.188C161.653 134.188 195.645 127.746 226.925 114.522C231.587 112.403 235.571 117.574 230.993 120.964ZM242.607 107.741C239.046 103.163 219.041 105.537 209.971 106.639C207.258 106.978 206.834 104.604 209.293 102.824C225.229 91.6346 251.423 94.8558 254.474 98.5856C257.526 102.4 253.627 128.594 238.707 141.139C236.419 143.089 234.215 142.072 235.232 139.529C238.623 131.137 246.167 112.233 242.607 107.741Z" fill="#FF9900"/>
</g>
<defs>
<clipPath id="clip0_306_177">
<rect width="256" height="153" fill="white"/>
</clipPath>
</defs>
</svg>
