<svg width="256" height="153" viewBox="0 0 256 153" fill="none" xmlns="http://www.w3.org/2000/svg">
<g clip-path="url(#clip0_2_15423)">
<path d="M72.392 55.4376C72.392 58.5741 72.7311 61.1171 73.3245 62.982C74.0026 64.8469 74.8503 66.8813 76.0371 69.0853C76.4609 69.7635 76.6304 70.4416 76.6304 71.035C76.6304 71.8827 76.1218 72.7303 75.0198 73.578L69.6795 77.1383C68.9165 77.6469 68.1536 77.9012 67.4755 77.9012C66.6278 77.9012 65.7801 77.4774 64.9324 76.7144C63.7457 75.4429 62.7285 74.0866 61.8808 72.7303C61.0331 71.2893 60.1854 69.6787 59.253 67.729C52.641 75.5277 44.3338 79.427 34.3311 79.427C27.2106 79.427 21.5311 77.3926 17.3775 73.3237C13.2238 69.2548 11.1046 63.8297 11.1046 57.0482C11.1046 49.8429 13.6477 43.9939 18.8185 39.586C23.9894 35.178 30.8556 32.9741 39.5867 32.9741C42.4688 32.9741 45.4357 33.2284 48.5722 33.6522C51.7086 34.076 54.9298 34.7542 58.3205 35.5171V29.329C58.3205 22.8866 56.9642 18.3939 54.3364 15.7661C51.6238 13.1383 47.0463 11.8668 40.5192 11.8668C37.5523 11.8668 34.5006 12.2058 31.3642 12.9688C28.2278 13.7317 25.1761 14.6641 22.2093 15.8509C20.853 16.4443 19.8357 16.7833 19.2424 16.9529C18.649 17.1224 18.2251 17.2072 17.8861 17.2072C16.6993 17.2072 16.1059 16.3595 16.1059 14.5793V10.4257C16.1059 9.06941 16.2755 8.0522 16.6993 7.45882C17.1232 6.86544 17.8861 6.27206 19.0728 5.67869C22.0397 4.15286 25.6 2.88134 29.7536 1.86412C33.9073 0.76213 38.3152 0.253521 42.9775 0.253521C53.0649 0.253521 60.4397 2.54226 65.1867 7.11975C69.849 11.6972 72.2225 18.6482 72.2225 27.9727V55.4376H72.392ZM37.9761 68.3224C40.7735 68.3224 43.6556 67.8138 46.7073 66.7966C49.7589 65.7793 52.4715 63.9144 54.7602 61.3714C56.1165 59.7608 57.1338 57.9807 57.6424 55.9462C58.151 53.9118 58.49 51.4535 58.49 48.5714V45.0111C56.0318 44.4178 53.4039 43.9092 50.6914 43.5701C47.9788 43.231 45.351 43.0615 42.7232 43.0615C37.0437 43.0615 32.89 44.1635 30.0927 46.4522C27.2953 48.7409 25.9391 51.9621 25.9391 56.2005C25.9391 60.1846 26.9563 63.1515 29.0755 65.186C31.1099 67.3052 34.0768 68.3224 37.9761 68.3224ZM106.045 77.4774C104.519 77.4774 103.502 77.2231 102.824 76.6297C102.146 76.1211 101.552 74.9343 101.044 73.3237L81.1232 7.79789C80.6145 6.10253 80.3602 5.00054 80.3602 4.40716C80.3602 3.05087 81.0384 2.28796 82.3947 2.28796H90.702C92.3126 2.28796 93.4146 2.54226 94.0079 3.13564C94.6861 3.64425 95.1947 4.831 95.7033 6.4416L109.944 62.5582L123.168 6.4416C123.592 4.74624 124.101 3.64425 124.779 3.13564C125.457 2.62703 126.644 2.28796 128.17 2.28796H134.951C136.562 2.28796 137.664 2.54226 138.342 3.13564C139.02 3.64425 139.613 4.831 139.952 6.4416L153.346 63.2363L168.011 6.4416C168.519 4.74624 169.113 3.64425 169.706 3.13564C170.384 2.62703 171.486 2.28796 173.012 2.28796H180.895C182.252 2.28796 183.015 2.9661 183.015 4.40716C183.015 4.831 182.93 5.25485 182.845 5.76345C182.76 6.27206 182.591 6.95021 182.252 7.88266L161.822 73.4085C161.314 75.1039 160.721 76.2058 160.042 76.7144C159.364 77.2231 158.262 77.5621 156.821 77.5621H149.531C147.921 77.5621 146.819 77.3078 146.14 76.7144C145.462 76.1211 144.869 75.0191 144.53 73.3237L131.391 18.6482L118.336 73.239C117.913 74.9343 117.404 76.0363 116.726 76.6297C116.048 77.2231 114.861 77.4774 113.335 77.4774H106.045ZM214.972 79.7661C210.564 79.7661 206.156 79.2575 201.918 78.2403C197.679 77.2231 194.374 76.1211 192.17 74.8495C190.813 74.0866 189.881 73.239 189.542 72.476C189.203 71.7131 189.033 70.8654 189.033 70.1025V65.7794C189.033 63.9992 189.711 63.1515 190.983 63.1515C191.491 63.1515 192 63.2363 192.509 63.4058C193.017 63.5754 193.78 63.9144 194.628 64.2535C197.51 65.525 200.646 66.5423 203.952 67.2204C207.343 67.8986 210.649 68.2376 214.04 68.2376C219.38 68.2376 223.534 67.3052 226.416 65.4403C229.298 63.5754 230.824 60.8628 230.824 57.3873C230.824 55.0138 230.061 53.0641 228.535 51.4535C227.009 49.8429 224.127 48.4019 219.973 47.0456L207.682 43.231C201.494 41.2813 196.917 38.3992 194.119 34.5846C191.322 30.8548 189.881 26.7012 189.881 22.2933C189.881 18.733 190.644 15.5966 192.17 12.884C193.695 10.1714 195.73 7.79789 198.273 5.93299C200.816 3.98332 203.698 2.54226 207.089 1.52504C210.479 0.507825 214.04 0.0839844 217.77 0.0839844C219.634 0.0839844 221.584 0.168753 223.449 0.423057C225.399 0.677362 227.179 1.01643 228.959 1.35551C230.654 1.77935 232.265 2.20319 233.791 2.7118C235.317 3.22041 236.503 3.72902 237.351 4.23763C238.538 4.91577 239.385 5.59392 239.894 6.35683C240.403 7.03498 240.657 7.96743 240.657 9.15418V13.1383C240.657 14.9184 239.979 15.8509 238.707 15.8509C238.029 15.8509 236.927 15.5118 235.486 14.8337C230.654 12.6297 225.229 11.5277 219.211 11.5277C214.379 11.5277 210.564 12.2906 207.936 13.9012C205.309 15.5118 203.952 17.9701 203.952 21.4456C203.952 23.8191 204.8 25.8535 206.495 27.4641C208.191 29.0747 211.327 30.6853 215.82 32.1264L227.857 35.9409C233.96 37.8906 238.368 40.6032 240.996 44.0787C243.624 47.5542 244.895 51.5383 244.895 55.9462C244.895 59.5913 244.132 62.8972 242.691 65.7794C241.166 68.6615 239.131 71.2045 236.503 73.239C233.875 75.3582 230.739 76.884 227.094 77.986C223.279 79.1727 219.295 79.7661 214.972 79.7661Z" fill="#252F3E"/>
<path d="M230.993 120.964C203.105 141.563 162.585 152.498 127.746 152.498C78.9192 152.498 34.9245 134.443 1.69535 104.435C-0.932464 102.061 1.44105 98.8399 4.57747 100.705C40.5192 121.558 84.853 134.188 130.713 134.188C161.653 134.188 195.645 127.746 226.924 114.522C231.587 112.403 235.571 117.574 230.993 120.964ZM242.607 107.741C239.046 103.163 219.041 105.537 209.971 106.639C207.258 106.978 206.834 104.604 209.293 102.824C225.229 91.6346 251.423 94.8558 254.474 98.5856C257.526 102.4 253.626 128.594 238.707 141.139C236.419 143.089 234.215 142.072 235.232 139.529C238.622 131.137 246.167 112.233 242.607 107.741Z" fill="#FF9900"/>
</g>
<defs>
<clipPath id="clip0_2_15423">
<rect width="256" height="153" fill="white"/>
</clipPath>
</defs>
</svg>
