<svg width="256" height="288" viewBox="0 0 256 288" fill="none" xmlns="http://www.w3.org/2000/svg">
<g clip-path="url(#clip0_2_14249)">
<path d="M255.569 84.4524C255.567 79.6224 254.534 75.3544 252.445 71.6914C250.393 68.0894 247.32 65.0704 243.198 62.6834C209.173 43.0644 175.115 23.5054 141.101 3.86638C131.931 -1.42762 123.04 -1.23462 113.938 4.13538C100.395 12.1224 32.59 50.9694 12.385 62.6724C4.064 67.4894 0.015 74.8614 0.013 84.4434C0 123.898 0.013 163.352 0 202.808C0 207.532 0.991 211.717 2.988 215.325C5.041 219.036 8.157 222.138 12.374 224.579C32.58 236.282 100.394 275.126 113.934 283.115C123.04 288.488 131.931 288.68 141.104 283.384C175.119 263.744 209.179 244.186 243.209 224.567C247.426 222.127 250.542 219.023 252.595 215.315C254.589 211.707 255.582 207.522 255.582 202.797C255.582 202.797 255.582 123.908 255.569 84.4524Z" fill="#A179DC"/>
<path d="M128.182 143.242L2.98804 215.326C5.04104 219.037 8.15704 222.139 12.374 224.58C32.58 236.283 100.394 275.127 113.934 283.116C123.04 288.489 131.931 288.681 141.104 283.385C175.119 263.745 209.179 244.187 243.209 224.568C247.426 222.128 250.542 219.024 252.595 215.316L128.182 143.242Z" fill="#280068"/>
<path d="M255.569 84.4524C255.567 79.6224 254.534 75.3544 252.445 71.6914L128.182 143.241L252.595 215.315C254.589 211.707 255.58 207.522 255.582 202.797C255.582 202.797 255.582 123.908 255.569 84.4524Z" fill="#390091"/>
<path d="M201.892 116.295V129.769H215.366V116.295H222.103V129.769H235.577V136.505H222.103V149.979H235.577V156.716H222.103V170.19H215.366V156.716H201.892V170.19H195.155V156.716H181.682V149.979H195.155V136.505H181.682V129.769H195.155V116.295H201.892ZM215.366 136.505H201.892V149.979H215.366V136.505Z" fill="white"/>
<path d="M128.457 48.625C163.601 48.625 194.284 67.7113 210.719 96.0811L210.558 95.808L169.21 119.616C161.063 105.823 146.128 96.5142 128.996 96.3225L128.457 96.3195C102.331 96.3195 81.1507 117.499 81.1507 143.624C81.1507 152.168 83.4284 160.177 87.3896 167.094C95.5437 181.329 110.873 190.931 128.457 190.931C146.15 190.931 161.566 181.207 169.678 166.82L169.481 167.165L210.768 191.083C194.513 219.213 164.25 238.24 129.515 238.619L128.457 238.625C93.2022 238.625 62.4315 219.421 46.0382 190.901C38.0352 176.978 33.4562 160.837 33.4562 143.624C33.4562 91.1584 75.9884 48.625 128.457 48.625Z" fill="white"/>
</g>
<defs>
<clipPath id="clip0_2_14249">
<rect width="256" height="288" fill="white"/>
</clipPath>
</defs>
</svg>
