<svg width="256" height="361" viewBox="0 0 256 361" fill="none" xmlns="http://www.w3.org/2000/svg">
<g clip-path="url(#clip0_2_15130)">
<path d="M127.844 360.088L23.6617 331.166L0.44519 70.7656H255.555L232.314 331.125L127.844 360.088Z" fill="#264DE4"/>
<path d="M212.417 314.546L232.278 92.0566H128V337.95L212.417 314.546Z" fill="#2965F1"/>
<path d="M53.6686 188.637L56.531 220.573H128V188.637H53.6686Z" fill="#EBEBEB"/>
<path d="M47.917 123.994L50.8202 155.932H128V123.994H47.917Z" fill="#EBEBEB"/>
<path d="M128 271.579L127.86 271.617L92.2915 262.012L90.0178 236.541H57.958L62.4324 286.687L127.853 304.848L128 304.807V271.579Z" fill="#EBEBEB"/>
<path d="M60.4835 0H99.1648V16.1758H76.6593V32.3517H99.1648V48.5275H60.4835V0Z" fill="black"/>
<path d="M106.901 0H145.582V14.0659H123.077V16.8791H145.582V49.2308H106.901V34.4615H129.407V31.6484H106.901V0Z" fill="black"/>
<path d="M153.319 0H192V14.0659H169.495V16.8791H192V49.2308H153.319V34.4615H175.824V31.6484H153.319V0Z" fill="black"/>
<path d="M202.127 188.636L207.892 123.994H127.89V155.932H172.892L169.986 188.636H127.89V220.572H167.216L163.509 261.992L127.89 271.606V304.833L193.362 286.687L193.843 281.291L201.347 197.212L202.127 188.636Z" fill="white"/>
</g>
<defs>
<clipPath id="clip0_2_15130">
<rect width="256" height="361" fill="white"/>
</clipPath>
</defs>
</svg>
