<svg width="256" height="244" viewBox="0 0 256 244" fill="none" xmlns="http://www.w3.org/2000/svg">
<g clip-path="url(#clip0_2_15615)">
<path d="M214.269 128.005C214.269 127.576 214.151 127.269 213.909 127.068C213.641 126.852 213.177 126.737 212.531 126.737H211.603V129.289H212.723C213.758 129.289 214.269 128.86 214.269 128.005ZM215.717 133.326H214.441L213.627 131.53C213.214 130.631 212.772 130.181 212.29 130.181H211.603V133.326H210.551V125.842H212.658C213.594 125.842 214.298 126.044 214.78 126.467C215.189 126.831 215.394 127.298 215.394 127.879C215.394 128.394 215.227 128.827 214.891 129.187C214.564 129.551 214.093 129.796 213.492 129.923V129.956C213.909 130.054 214.326 130.512 214.731 131.338L215.717 133.33V133.326ZM218.048 129.657C218.048 128.185 217.545 126.942 216.543 125.956C215.537 124.971 214.31 124.476 212.862 124.476C211.369 124.476 210.126 124.971 209.141 125.965C208.155 126.962 207.664 128.197 207.664 129.657C207.664 131.15 208.176 132.397 209.19 133.391C210.192 134.385 211.419 134.876 212.862 134.876C214.298 134.876 215.524 134.381 216.535 133.375C217.545 132.385 218.048 131.142 218.048 129.657ZM218.755 129.625C218.755 131.277 218.187 132.664 217.046 133.78C215.905 134.905 214.506 135.465 212.834 135.465C211.149 135.465 209.75 134.913 208.638 133.829C207.525 132.729 206.973 131.347 206.973 129.67C206.973 128.03 207.538 126.652 208.666 125.519C209.795 124.391 211.202 123.826 212.883 123.826C214.531 123.826 215.913 124.366 217.034 125.441C218.183 126.546 218.755 127.936 218.755 129.625Z" fill="black"/>
<path d="M58.7992 150.493H55.1718V129.734C55.1718 128.095 55.2798 126.099 55.4729 123.743H55.3911C55.0515 125.121 54.7406 126.119 54.4668 126.737L43.9237 150.493H42.157L31.5933 126.909C31.2956 126.25 30.9841 125.191 30.6691 123.743H30.5905C30.7018 124.982 30.764 126.99 30.764 129.775V150.493H27.2672V119.58H32.052L41.5361 141.136C42.2516 142.76 42.7139 143.995 42.9386 144.838H43.0891C43.7065 143.149 44.1973 141.881 44.5696 141.046L54.2578 119.58H58.7972V150.493H58.7992Z" fill="black"/>
<path d="M69.9574 150.494H66.4324V128.418H69.9574V150.494ZM70.5669 120.504C70.5669 121.155 70.3379 121.698 69.8837 122.144C69.4382 122.59 68.8862 122.815 68.2398 122.815C67.61 122.815 67.0619 122.599 66.6124 122.169C66.1625 121.735 65.9413 121.183 65.9413 120.504C65.9413 119.866 66.1638 119.323 66.6124 118.881C67.0619 118.439 67.61 118.227 68.2398 118.227C68.8859 118.227 69.4382 118.439 69.8837 118.881C70.3379 119.323 70.5669 119.866 70.5669 120.504Z" fill="black"/>
<path d="M91.9877 149.472C90.2946 150.511 88.2743 151.026 85.939 151.026C82.774 151.026 80.226 149.975 78.2793 147.877C76.3898 145.841 75.4371 143.211 75.4371 139.988C75.4371 136.373 76.4717 133.445 78.5573 131.22C80.6309 128.991 83.4201 127.879 86.929 127.879C88.8469 127.879 90.5482 128.255 92.0368 128.999V132.627C90.3888 131.47 88.6467 130.897 86.7775 130.897C84.5282 130.897 82.7003 131.682 81.2811 133.249C79.8045 134.852 79.0563 136.995 79.0563 139.669C79.0563 142.238 79.7394 144.27 81.0972 145.771C82.4589 147.264 84.2708 148.012 86.5567 148.012C88.487 148.012 90.2946 147.378 91.9877 146.115V149.472Z" fill="black"/>
<path d="M108.849 131.998C108.228 131.52 107.332 131.287 106.15 131.287C104.715 131.287 103.508 131.929 102.531 133.225C101.423 134.673 100.871 136.677 100.871 139.237V150.492H97.3373V128.416H100.871V132.968H100.956C101.475 131.356 102.277 130.117 103.348 129.238C104.35 128.436 105.483 128.031 106.73 128.031C107.671 128.031 108.371 128.133 108.849 128.332V131.997L108.849 131.998Z" fill="black"/>
<path d="M128.543 139.495C128.543 136.669 127.905 134.51 126.629 133.03C125.39 131.606 123.66 130.895 121.431 130.895C119.235 130.895 117.472 131.615 116.155 133.054C114.761 134.592 114.066 136.763 114.066 139.581C114.066 142.223 114.728 144.296 116.066 145.777C117.395 147.265 119.186 148.01 121.431 148.01C123.754 148.01 125.533 147.253 126.752 145.748C127.946 144.276 128.543 142.194 128.543 139.495ZM132.166 139.371C132.166 142.888 131.173 145.714 129.193 147.832C127.206 149.959 124.531 151.022 121.169 151.022C117.857 151.022 115.219 149.959 113.285 147.832C111.391 145.783 110.438 143.076 110.438 139.71C110.438 135.87 111.514 132.909 113.673 130.807C115.669 128.857 118.339 127.875 121.685 127.875C124.977 127.875 127.549 128.901 129.402 130.934C131.238 132.979 132.166 135.793 132.166 139.371Z" fill="black"/>
<path d="M149.69 144.587C149.69 146.395 149.015 147.892 147.661 149.086C146.185 150.378 144.157 151.024 141.605 151.024C139.515 151.024 137.683 150.587 136.129 149.695V145.896C137.859 147.303 139.768 148.01 141.867 148.01C144.664 148.01 146.066 146.98 146.066 144.927C146.066 144.064 145.759 143.348 145.138 142.796C144.517 142.232 143.31 141.557 141.515 140.767C139.666 139.958 138.349 139.128 137.572 138.265C136.64 137.242 136.17 135.913 136.17 134.277C136.17 132.445 136.902 130.92 138.349 129.705C139.801 128.486 141.666 127.877 143.956 127.877C145.711 127.877 147.281 128.22 148.676 128.912V132.47C147.22 131.419 145.555 130.895 143.666 130.895C142.496 130.895 141.556 131.186 140.856 131.754C140.149 132.335 139.793 133.075 139.793 133.979C139.793 134.956 140.091 135.717 140.681 136.261C141.204 136.764 142.316 137.377 143.993 138.093C145.878 138.882 147.24 139.7 148.07 140.538C149.146 141.598 149.69 142.947 149.69 144.587Z" fill="black"/>
<path d="M171.285 139.495C171.285 136.669 170.647 134.51 169.367 133.03C168.132 131.606 166.398 130.895 164.173 130.895C161.976 130.895 160.214 131.615 158.889 133.054C157.499 134.592 156.807 136.763 156.807 139.581C156.807 142.223 157.47 144.296 158.795 145.777C160.14 147.265 161.932 148.01 164.173 148.01C166.5 148.01 168.274 147.253 169.493 145.748C170.687 144.276 171.285 142.194 171.285 139.495ZM174.916 139.371C174.916 142.888 173.914 145.714 171.931 147.832C169.951 149.959 167.277 151.022 163.915 151.022C160.598 151.022 157.96 149.959 156.026 147.832C154.133 145.783 153.18 143.076 153.18 139.71C153.18 135.87 154.263 132.909 156.411 130.807C158.406 128.857 161.081 127.875 164.43 127.875C167.723 127.875 170.291 128.901 172.139 130.934C173.98 132.979 174.916 135.793 174.916 139.371Z" fill="black"/>
<path d="M190.486 120.916C189.791 120.532 189.019 120.335 188.139 120.335C185.665 120.335 184.438 121.893 184.438 125.014V128.417H189.611V131.41H184.438V150.492H180.9V131.41H177.146V128.417H180.9V124.838C180.9 122.409 181.645 120.503 183.158 119.129C184.454 117.935 186.041 117.342 187.926 117.342C189.019 117.342 189.869 117.473 190.486 117.726V120.916Z" fill="black"/>
<path d="M204.433 150.271C203.599 150.749 202.486 150.987 201.112 150.987C197.26 150.987 195.334 148.815 195.334 144.472V131.414H191.547V128.416H195.334V123.03C196.462 122.674 197.636 122.286 198.875 121.885V128.416H204.433V131.414H198.875V143.871C198.875 145.351 199.117 146.41 199.623 147.024C200.135 147.658 200.969 147.968 202.147 147.968C203.026 147.968 203.787 147.733 204.433 147.257V150.271Z" fill="black"/>
<path d="M13.4144 236.654C13.4144 238.383 12.797 239.88 11.5495 241.144C10.3063 242.404 8.79702 243.038 7.02637 243.038C5.29628 243.038 3.82402 242.404 2.61774 241.144C1.41114 239.88 0.81012 238.383 0.81012 236.654C0.81012 234.875 1.41114 233.374 2.61774 232.131C3.82402 230.883 5.29628 230.266 7.02637 230.266C8.79702 230.266 10.3063 230.892 11.5495 232.155C12.797 233.419 13.4144 234.92 13.4144 236.654Z" fill="black"/>
<path d="M92.5311 241.736H81.0066L39.1738 177.132C38.1962 175.578 37.3538 173.889 36.6383 172.045H36.2944C36.5921 173.774 36.7446 177.488 36.7446 183.177V241.736H27.2442V160.684H39.5746L80.156 224.269C81.7715 226.792 82.8754 228.6 83.4358 229.688H83.6615C83.2853 227.357 83.0894 223.382 83.0894 217.771V160.684H92.5322V241.736H92.5311Z" fill="black"/>
<path d="M153.436 241.736H110.478V160.684H151.571V169.272H119.971V196.235H149.252V204.827H119.971V233.144H153.436V241.736Z" fill="black"/>
<path d="M218.595 169.274H195.248V241.738H185.751V169.274H162.359V160.682H218.595V169.274Z" fill="black"/>
<path d="M89.3096 20.6879C98.4744 48.714 101.946 98.71 128.746 98.71C130.787 98.71 132.848 98.5104 134.917 98.1168C110.555 92.4365 107.668 42.9843 92.8021 17.375C91.6365 18.4343 90.4792 19.5385 89.3096 20.6879Z" fill="url(#paint0_linear_2_15615)"/>
<path d="M92.8021 17.3754C107.668 42.9848 110.555 92.4369 134.917 98.1173C136.831 97.7656 138.749 97.2339 140.671 96.5632C118.804 85.8484 112.76 37.8278 95.8775 14.709C94.8551 15.5599 93.8286 16.4515 92.8021 17.3754Z" fill="url(#paint1_linear_2_15615)"/>
<path d="M114.221 2.14453C112.185 2.14453 110.119 2.34407 108.046 2.73771C102.623 3.76009 97.1145 6.09511 91.5608 9.62856C93.0779 11.1254 94.5214 12.8388 95.8792 14.7079C101.527 10.0211 107.138 6.55737 112.729 4.47559C114.827 3.6986 116.917 3.11393 119.014 2.72952C117.501 2.34471 115.906 2.14453 114.221 2.14453Z" fill="#14559A"/>
<path d="M157.741 86.6875C159.978 84.9087 162.22 82.9414 164.465 80.7946C155.153 52.899 151.82 2.1875 124.832 2.1875C122.902 2.1875 120.955 2.36743 119.013 2.72729C143.595 8.84147 146.744 62.3257 157.741 86.6875Z" fill="url(#paint2_linear_2_15615)"/>
<path d="M119.013 2.72912C117.5 2.34471 115.905 2.14453 114.22 2.14453L124.833 2.18342C122.903 2.18342 120.956 2.36335 119.013 2.7275" fill="#3092C4"/>
<path d="M157.27 92.6123C156.215 91.6063 155.213 90.5021 154.227 89.3242C149.688 92.5386 145.165 94.9761 140.67 96.5629C142.269 97.3441 143.946 97.9249 145.725 98.2848C147.103 98.5661 148.531 98.7101 150.031 98.7101C155.074 98.7101 159.061 98.113 162.456 96.4853C160.587 95.475 158.873 94.1663 157.27 92.6123Z" fill="#1969BC"/>
<path d="M112.727 4.48122C134.745 15.9976 136.659 68.1487 154.228 89.3248C155.406 88.4948 156.572 87.6154 157.737 86.6868C146.74 62.325 143.595 8.83646 119.017 2.72656C116.919 3.11915 114.825 3.70025 112.727 4.48122Z" fill="url(#paint3_linear_2_15615)"/>
<path d="M95.8775 14.7085C112.759 37.8273 118.804 85.8479 140.671 96.5627C145.166 94.9759 149.689 92.5385 154.228 89.3241C136.659 68.1479 134.745 15.9968 112.727 4.48047C107.136 6.55796 101.525 10.0217 95.8775 14.7085Z" fill="url(#paint4_linear_2_15615)"/>
<path d="M78.5084 20.0144C75.8624 25.9978 73.1591 33.8619 69.8915 44.127C76.3899 34.9701 82.8679 27.0813 89.3091 20.6894C88.4217 17.9615 87.4688 15.4465 86.4423 13.2051C83.8086 15.2214 81.1543 17.4913 78.5084 20.0144Z" fill="url(#paint5_linear_2_15615)"/>
<path d="M88.7886 11.4785C88.0116 12.0347 87.2306 12.6033 86.4454 13.2043C87.4718 15.4455 88.4205 17.9607 89.3082 20.6884C90.4775 19.5432 91.6389 18.4351 92.8004 17.3758C91.5532 15.2327 90.2282 13.2533 88.7886 11.4785Z" fill="#2B74B1"/>
<path d="M91.5608 9.62891C90.6365 10.2139 89.7165 10.8312 88.788 11.4774C90.2275 13.2523 91.5526 15.2317 92.8041 17.3789C93.8307 16.4504 94.857 15.5549 95.8795 14.7082C94.5217 12.8394 93.0782 11.1257 91.5608 9.62891Z" fill="#125A9E"/>
<path d="M241.747 0.0112608C229.294 48.0357 203.284 86.6092 181.478 96.3343H181.436C181.04 96.5143 180.647 96.6779 180.259 96.8372C180.205 96.8696 180.157 96.8736 180.115 96.8931C180.001 96.9393 179.894 96.9749 179.78 97.0207C179.726 97.0531 179.678 97.0636 179.629 97.0831C179.445 97.1487 179.265 97.2042 179.085 97.2761C179.007 97.3085 178.934 97.3288 178.86 97.3547C178.778 97.3871 178.684 97.4171 178.59 97.4431C178.508 97.4755 178.422 97.499 178.328 97.5346C178.25 97.567 178.168 97.5808 178.095 97.6132C177.935 97.6594 177.789 97.6983 177.629 97.7538C177.563 97.7538 177.502 97.7895 177.433 97.8065C177.334 97.8389 177.224 97.8624 177.118 97.8916C177.044 97.924 176.983 97.9345 176.905 97.9507C176.794 97.9831 176.672 98.0131 176.561 98.0391C176.414 98.0715 176.283 98.1015 176.144 98.1307C177.13 98.4948 178.156 98.6787 179.265 98.6787C199.942 98.6787 220.79 61.6227 255.287 0H241.742L241.747 0.0112608Z" fill="url(#paint6_linear_2_15615)"/>
<path d="M65.4011 4.09442C65.4141 4.09442 65.4303 4.06201 65.4384 4.06201C65.4546 4.06201 65.4797 4.06201 65.4878 4.02961H65.5137C65.6282 3.99072 65.7346 3.94454 65.8491 3.90201C65.8782 3.90201 65.8936 3.90201 65.9147 3.86961C65.9438 3.86961 65.9722 3.8372 66.0007 3.83315C66.1234 3.79427 66.2461 3.74809 66.3606 3.70556H66.3801C66.6542 3.62382 66.9076 3.52239 67.1734 3.42752C67.2107 3.42752 67.2472 3.39512 67.2919 3.39512C67.4025 3.35947 67.517 3.31977 67.6313 3.29369C67.6848 3.26128 67.7377 3.26128 67.7867 3.24427C67.9052 3.20863 68.02 3.16893 68.1303 3.14284C68.1797 3.14284 68.2245 3.11044 68.2611 3.1072C68.6415 3.00253 69.0177 2.90434 69.3981 2.81272C69.4515 2.81272 69.4962 2.78031 69.5534 2.77707C69.6637 2.74467 69.7662 2.72765 69.8847 2.71145C69.9341 2.67905 69.9911 2.67905 70.0483 2.66203C70.1586 2.62963 70.2649 2.62639 70.3837 2.59965H70.4614C70.6904 2.55348 70.9236 2.51459 71.1526 2.47206H71.2916C71.4019 2.43965 71.5001 2.43641 71.6107 2.41616C71.6714 2.41616 71.7333 2.38375 71.7906 2.38375C71.8927 2.38375 71.9951 2.35135 72.0972 2.33758C72.1506 2.33758 72.2034 2.33758 72.265 2.30517C72.5061 2.27277 72.7557 2.2598 73.0093 2.23955C72.2936 2.17069 71.5574 2.125 70.8091 2.125C47.5227 2.125 15.4395 45.3319 0.986694 101.286H3.77174C8.39712 93.0377 12.5522 85.2346 16.3515 77.9099C26.4733 38.2774 47.0892 11.2488 65.4026 4.08802" fill="url(#paint7_linear_2_15615)"/>
<path d="M78.5087 20.014C81.1548 17.4908 83.8088 15.2209 86.4426 13.2049C85.8415 11.8881 85.2199 10.6693 84.5531 9.55273C82.4225 12.1374 80.4759 15.5482 78.5087 20.014Z" fill="#0D82CA"/>
<path d="M80.4216 4.42265C81.943 5.6986 83.3046 7.45318 84.5521 9.55529C84.9447 9.0727 85.3416 8.62681 85.7545 8.20967C84.0247 6.59436 82.1556 5.26932 80.1271 4.27148C80.209 4.31685 80.2907 4.35331 80.3758 4.38928C80.3758 4.38928 80.4082 4.42168 80.4219 4.42168" fill="#0D82CA"/>
<path d="M16.3504 77.914C37.5838 36.997 47.6443 11.1014 65.4015 4.0918C47.0922 11.2571 26.4723 38.2854 16.3504 77.914Z" fill="url(#paint8_linear_2_15615)"/>
<path d="M85.7532 8.20703C85.3403 8.62846 84.9477 9.07014 84.5508 9.55273C85.2176 10.669 85.8389 11.8838 86.4445 13.2046C87.2297 12.6036 88.0106 12.035 88.7877 11.4788C87.8268 10.2928 86.8126 9.19279 85.7532 8.20703Z" fill="#127BCA"/>
<path d="M25.9897 101.106C25.8588 101.139 25.7279 101.139 25.6052 101.153H25.5316C25.421 101.153 25.3065 101.185 25.2044 101.185H25.1511C24.8855 101.217 24.6236 101.217 24.37 101.238H24.2882C45.7793 100.636 55.6025 89.8763 60.4774 74.2703C64.1826 62.4391 67.2253 52.4726 69.8918 44.1094C60.8905 56.7791 51.8483 71.882 42.757 88.8009C38.3729 96.9556 31.7068 100.362 25.9895 101.09" fill="url(#paint9_linear_2_15615)"/>
<path d="M25.9897 101.099C31.707 100.371 38.3731 96.9686 42.7572 88.8099C51.8484 71.8952 60.8947 56.7881 69.8878 44.1184C73.1595 33.8491 75.8587 25.9892 78.5088 20.0059C60.5839 37.0679 42.5895 65.4378 25.9897 101.091" fill="url(#paint10_linear_2_15615)"/>
<path d="M16.3494 77.916C12.5503 85.2407 8.3952 93.0438 3.76965 101.292H11.8714C12.9429 93.1006 14.4642 85.2895 16.3494 77.9199" fill="#05A1E6"/>
<path d="M72.264 2.32598C72.1984 2.32598 72.1494 2.35838 72.0922 2.35838C71.994 2.39079 71.8916 2.39079 71.7896 2.40132C71.7288 2.40132 71.6711 2.40132 71.6096 2.43372C71.4991 2.46613 71.397 2.46937 71.2906 2.48962C71.2412 2.48962 71.1925 2.48962 71.1516 2.52203C70.9183 2.56091 70.6894 2.60385 70.4604 2.64306H70.3826C70.2642 2.67546 70.1576 2.69248 70.0473 2.70868C69.9898 2.74108 69.9328 2.74108 69.8794 2.75405C69.7692 2.78645 69.6586 2.80022 69.5523 2.81967C69.4948 2.85207 69.4502 2.85207 69.3969 2.85531C69.0166 2.94694 68.6403 3.04513 68.2599 3.14979C68.2194 3.14979 68.1782 3.1822 68.1291 3.18868C68.0146 3.22109 67.904 3.2543 67.7856 3.29011C67.7362 3.32251 67.6792 3.32251 67.6301 3.33547C67.5157 3.36788 67.4011 3.4011 67.2907 3.4369C67.2461 3.4369 67.209 3.46931 67.168 3.46931C66.9063 3.56741 66.6487 3.6656 66.3787 3.74742C66.2643 3.78307 66.1415 3.82917 66.0189 3.8717C65.9694 3.9041 65.9247 3.91139 65.8677 3.93408C65.7531 3.96972 65.6387 4.0159 65.5323 4.05843C65.4918 4.09084 65.4506 4.09408 65.4221 4.11109C47.6649 11.1207 37.6044 37.0163 16.371 77.9333C14.4856 85.3029 12.9602 93.114 11.8928 101.305H13.0297C16.2319 101.305 17.1357 101.273 20.8205 101.273H21.0086H21.5566H21.7448H21.7981H21.9862H22.0925H22.1662H22.3134H22.7714H23.2295H23.6139H23.716H24.3908C24.6443 101.241 24.906 101.241 25.1719 101.22H25.221C25.3316 101.22 25.4418 101.188 25.5481 101.188H25.6257C25.7441 101.188 25.8792 101.156 26.0101 101.142C42.6099 65.4884 60.6043 37.1184 78.5292 20.0564C80.5004 15.5906 82.443 12.1798 84.5696 9.59937C83.3263 7.49734 81.9645 5.7388 80.4432 4.46252C80.4432 4.46252 80.4019 4.46252 80.3986 4.43012C80.3126 4.39447 80.2312 4.35154 80.1451 4.30909C80.059 4.26291 79.9855 4.22726 79.8958 4.18149C79.818 4.14909 79.728 4.10615 79.6504 4.0637C79.5441 4.03129 79.4581 3.98512 79.3642 3.94258C79.2864 3.91018 79.2169 3.87696 79.139 3.84448C78.9794 3.7821 78.8201 3.71688 78.6688 3.64818C78.5991 3.61578 78.5339 3.59877 78.4682 3.57284C78.3579 3.53315 78.231 3.48122 78.1165 3.43212C78.059 3.39972 77.9938 3.39324 77.9284 3.36974C77.7608 3.31384 77.5971 3.25527 77.4417 3.20286H77.4011C77.213 3.14048 77.029 3.09495 76.8367 3.04253C76.7922 3.01013 76.7549 3.01013 76.7101 3.00365C76.5423 2.95747 76.3951 2.91202 76.2357 2.86949C76.1952 2.86949 76.1579 2.83709 76.1254 2.83709C75.741 2.73566 75.3443 2.65392 74.9436 2.57865C74.9022 2.57865 74.8618 2.54625 74.8209 2.54625C74.6491 2.51384 74.4815 2.48387 74.3097 2.46443C74.2684 2.43202 74.2441 2.43202 74.2076 2.43202C74.0032 2.39962 73.8027 2.37612 73.6023 2.35344H73.496C73.3325 2.32103 73.1813 2.31779 73.0298 2.30078C72.772 2.33319 72.5268 2.34696 72.2854 2.36964" fill="url(#paint11_linear_2_15615)"/>
<path d="M193.105 26.5986C189.019 39.6854 185.71 50.4821 182.831 59.3648C194.041 43.9387 205.083 24.5332 215.598 2.13867C203.333 5.99074 196.789 14.8083 193.105 26.5986Z" fill="url(#paint12_linear_2_15615)"/>
<path d="M183.187 95.5169C182.615 95.8081 182.042 96.0852 181.478 96.3348C203.284 86.6096 229.294 48.0362 241.747 0.0117188H239.223C210.612 51.1198 201.411 85.3337 183.187 95.5169Z" fill="url(#paint13_linear_2_15615)"/>
<path d="M168.948 91.2235C173.692 85.4326 177.557 75.589 182.833 59.3652C176.747 67.7244 170.621 74.9101 164.49 80.7704C164.49 80.8028 164.49 80.8028 164.458 80.8231C165.796 84.8309 167.264 88.3682 168.936 91.2228" fill="#079AE1"/>
<path d="M168.948 91.2227C167.333 93.1939 165.623 94.6949 163.722 95.8073C163.304 96.0495 162.883 96.2775 162.454 96.4862C164.462 97.5698 166.654 98.2938 169.107 98.584C169.467 98.6197 169.823 98.6529 170.195 98.6789H170.261C170.428 98.6789 170.605 98.6789 170.785 98.7113H170.857H171.393H171.969H172.149H172.558C172.624 98.7113 172.692 98.7113 172.758 98.6789C172.885 98.6789 173.02 98.6789 173.15 98.6465H173.197H173.344C173.478 98.6465 173.625 98.6141 173.769 98.6003H173.801C173.844 98.6003 173.89 98.5679 173.932 98.5679C174.083 98.5355 174.24 98.5217 174.386 98.4991H174.521C174.687 98.4666 174.86 98.4464 175.032 98.414H175.064H175.113C175.457 98.3484 175.792 98.2832 176.132 98.1981C173.318 97.1674 170.962 94.7382 168.934 91.2784" fill="#1969BC"/>
<path d="M128.746 98.7117C130.787 98.7117 132.848 98.5122 134.918 98.1146C136.832 97.7672 138.75 97.2352 140.672 96.5645C142.271 97.3457 143.948 97.9265 145.723 98.2864C147.101 98.5677 148.532 98.7117 150.033 98.7117H128.746Z" fill="#1E5CB3"/>
<path d="M150.033 98.7111C155.072 98.7111 159.063 98.114 162.454 96.4863C164.462 97.57 166.654 98.294 169.107 98.5845C169.467 98.6201 169.823 98.6533 170.195 98.6793H170.261C170.428 98.6793 170.605 98.6793 170.785 98.7117H170.86H171.396H150.019L150.033 98.7111Z" fill="#1E5CB3"/>
<path d="M171.408 98.7115H171.989H172.169H172.574C172.643 98.7115 172.708 98.7115 172.774 98.6791C172.901 98.6791 173.035 98.6791 173.171 98.6467H173.214H173.364C173.498 98.6467 173.645 98.6143 173.785 98.6013H173.821C173.864 98.6013 173.906 98.5689 173.949 98.5689C174.099 98.5365 174.256 98.5235 174.403 98.5001C174.452 98.5001 174.491 98.5 174.543 98.4676C174.71 98.4352 174.883 98.4182 175.055 98.3859H175.087H175.136C175.48 98.3203 175.815 98.255 176.155 98.1699C177.14 98.5337 178.167 98.718 179.275 98.718L171.415 98.7504L171.408 98.7115Z" fill="#1D60B5"/>
<path d="M164.471 80.8234V80.791C162.226 82.9379 159.985 84.9052 157.748 86.684C156.578 87.6125 155.413 88.4917 154.235 89.3221C155.22 90.4998 156.223 91.604 157.278 92.6101C158.881 94.1639 160.594 95.4729 162.463 96.4828C162.889 96.2734 163.314 96.045 163.727 95.804C165.633 94.6916 167.342 93.1908 168.958 91.2196C167.285 88.3651 165.817 84.8273 164.479 80.8195" fill="#175FAB"/>
<path d="M231.232 0.0117188H220.624H219.569H218.571H218.532C217.845 0.0441238 217.178 0.0676175 216.52 0.109906C216.209 0.776721 215.89 1.44346 215.583 2.11416C205.069 24.5086 194.027 43.9142 182.817 59.3403C177.546 75.5637 173.677 85.4076 168.933 91.1986C170.961 94.6584 173.321 97.0915 176.126 98.1222C176.208 98.0898 176.274 98.0898 176.347 98.0728H176.393C176.442 98.0728 176.495 98.0404 176.548 98.0404C176.663 98.008 176.785 97.9877 176.9 97.952C176.973 97.9196 177.035 97.9164 177.109 97.8929C177.215 97.8605 177.325 97.837 177.423 97.8111C177.489 97.7787 177.554 97.7682 177.62 97.7552C177.783 97.7025 177.93 97.6636 178.086 97.6145C178.16 97.5821 178.237 97.5553 178.319 97.5359C178.409 97.5035 178.499 97.48 178.581 97.441C178.675 97.4086 178.769 97.3916 178.851 97.356C178.924 97.3236 179.002 97.3033 179.072 97.2741C179.255 97.2085 179.436 97.1531 179.62 97.0811C179.669 97.0811 179.718 97.0357 179.771 97.0252C179.881 96.979 179.996 96.9434 180.106 96.8943C180.147 96.8619 180.196 96.8586 180.249 96.8416C180.634 96.6813 181.03 96.5177 181.427 96.3388H181.468C182.033 96.0901 182.605 95.8111 183.174 95.5209C201.401 85.3377 210.603 51.1237 239.214 0.0156884H231.223L231.232 0.0117188Z" fill="url(#paint14_linear_2_15615)"/>
<path d="M73.0091 2.25615C73.0545 2.25615 73.0951 2.25615 73.1399 2.28855C73.2502 2.28855 73.3608 2.28855 73.4712 2.3242H73.5818C73.782 2.35661 73.9825 2.37362 74.187 2.40278C74.2243 2.40278 74.2567 2.40278 74.2891 2.43519C74.4566 2.46759 74.6285 2.49433 74.8003 2.52025C74.8376 2.52025 74.8864 2.55266 74.9272 2.55266C75.3199 2.63124 75.7207 2.71298 76.1051 2.81441C76.1415 2.81441 76.1788 2.84681 76.2114 2.84681C76.375 2.8857 76.5222 2.93512 76.6858 2.98089C76.7352 2.98089 76.7715 3.01329 76.8167 3.02059C77.009 3.07 77.1889 3.11877 77.377 3.18091C77.3851 3.18091 77.3964 3.18091 77.4183 3.21331C77.5776 3.26192 77.7412 3.32454 77.909 3.38012C77.9746 3.41252 78.0356 3.4263 78.0971 3.4425C78.2117 3.49192 78.3386 3.54061 78.4489 3.58646C78.5145 3.58646 78.5797 3.63183 78.649 3.65532C78.8002 3.72418 78.9599 3.78615 79.1153 3.85161C79.1971 3.88402 79.2664 3.92047 79.3443 3.94972C79.4343 3.9959 79.5282 4.0381 79.6264 4.07083C79.7081 4.10972 79.7981 4.15258 79.8756 4.18854C79.9617 4.23472 80.0432 4.27037 80.1253 4.31614C82.1537 5.31405 84.0227 6.64331 85.7526 8.25465C86.3906 7.58395 87.0572 6.98259 87.7484 6.4428C83.9654 3.75999 79.6795 2.23047 74.7352 2.23047C74.1626 2.23047 73.59 2.26287 73.0093 2.30581" fill="#7DCBEC"/>
<path d="M85.7532 8.20833C86.8125 9.19377 87.8267 10.2941 88.7877 11.4801C89.7161 10.834 90.6363 10.2123 91.5605 9.63156C90.35 8.42099 89.074 7.33315 87.7449 6.39648C87.0537 6.93238 86.3912 7.53763 85.7532 8.20833Z" fill="#5EC5ED"/>
<path d="M73.0081 2.25582C73.5889 2.20674 74.1614 2.18629 74.734 2.18629C79.6783 2.18629 83.9643 3.71582 87.7472 6.39453C91.7387 3.24551 96.5645 2.1454 103.267 2.1454H70.8079C71.5563 2.1454 72.2884 2.19038 73.0081 2.25582Z" fill="url(#paint15_linear_2_15615)"/>
<path d="M103.267 2.14682C96.5644 2.14682 91.7387 3.24694 87.7472 6.39596C89.0722 7.33248 90.3482 8.42033 91.5587 9.63086C97.1165 6.09741 102.621 3.75814 108.048 2.73573C110.118 2.34722 112.183 2.14682 114.219 2.14682H103.267Z" fill="url(#paint16_linear_2_15615)"/>
<path d="M182.831 59.3714C185.715 50.4805 189.015 39.6881 193.109 26.597C196.798 14.8025 203.329 5.98525 215.593 2.13707C215.917 1.47843 216.223 0.799547 216.538 0.132812C196.544 1.33123 187.199 11.502 182.496 26.5643C174.272 52.8606 169.291 69.9063 164.493 80.7684C170.62 74.9119 176.746 67.7224 182.831 59.3714Z" fill="url(#paint17_linear_2_15615)"/>
<path d="M212.165 91.7053H209.899V98.7477H208.975V91.7053H206.701V90.8672H212.165V91.7053Z" fill="black"/>
<path d="M221.442 98.7477H220.522V93.4557C220.522 93.0386 220.554 92.5275 220.597 91.9262C220.502 92.2861 220.424 92.5357 220.352 92.6951L217.669 98.7477H217.219L214.528 92.7402C214.45 92.5733 214.371 92.3025 214.286 91.9262H214.254C214.286 92.2436 214.297 92.7566 214.297 93.4682V98.7477H213.413V90.8672H214.632L217.049 96.3675C217.232 96.7808 217.347 97.0997 217.405 97.3124H217.44C217.601 96.8789 217.732 96.5557 217.821 96.343L220.287 90.8672H221.448V98.7477H221.442Z" fill="black"/>
</g>
<defs>
<linearGradient id="paint0_linear_2_15615" x1="112.112" y1="1.50162" x2="112.112" y2="122.806" gradientUnits="userSpaceOnUse">
<stop stop-color="#0994DC"/>
<stop offset="0.350006" stop-color="#66CEF5"/>
<stop offset="0.846161" stop-color="#127BCA"/>
<stop offset="1" stop-color="#127BCA"/>
</linearGradient>
<linearGradient id="paint1_linear_2_15615" x1="116.737" y1="-1.56913" x2="116.737" y2="122.826" gradientUnits="userSpaceOnUse">
<stop stop-color="#0E76BC"/>
<stop offset="0.360001" stop-color="#36AEE8"/>
<stop offset="0.846161" stop-color="#00ADEF"/>
<stop offset="1" stop-color="#00ADEF"/>
</linearGradient>
<linearGradient id="paint2_linear_2_15615" x1="141.738" y1="95.9164" x2="141.738" y2="-3.06329" gradientUnits="userSpaceOnUse">
<stop stop-color="#1C63B7"/>
<stop offset="0.5" stop-color="#33BDF2"/>
<stop offset="1" stop-color="#33BDF2" stop-opacity="0.419608"/>
</linearGradient>
<linearGradient id="paint3_linear_2_15615" x1="135.233" y1="-14.1731" x2="135.233" y2="114.982" gradientUnits="userSpaceOnUse">
<stop stop-color="#166AB8"/>
<stop offset="0.399994" stop-color="#36AEE8"/>
<stop offset="0.846161" stop-color="#0798DD"/>
<stop offset="1" stop-color="#0798DD"/>
</linearGradient>
<linearGradient id="paint4_linear_2_15615" x1="125.052" y1="-13.495" x2="125.052" y2="123.844" gradientUnits="userSpaceOnUse">
<stop stop-color="#124379"/>
<stop offset="0.389999" stop-color="#1487CB"/>
<stop offset="0.780228" stop-color="#165197"/>
<stop offset="1" stop-color="#165197"/>
</linearGradient>
<linearGradient id="paint5_linear_2_15615" x1="69.8915" y1="28.6662" x2="89.3091" y2="28.6662" gradientUnits="userSpaceOnUse">
<stop stop-color="#33BDF2" stop-opacity="0.698039"/>
<stop offset="1" stop-color="#1DACD8"/>
</linearGradient>
<linearGradient id="paint6_linear_2_15615" x1="215.723" y1="93.4353" x2="215.723" y2="-2.98462" gradientUnits="userSpaceOnUse">
<stop stop-color="#136AB4"/>
<stop offset="0.6" stop-color="#59CAF5" stop-opacity="0.54902"/>
<stop offset="1" stop-color="#59CAF5" stop-opacity="0.235294"/>
</linearGradient>
<linearGradient id="paint7_linear_2_15615" x1="0.986146" y1="51.7054" x2="73.0087" y2="51.7054" gradientUnits="userSpaceOnUse">
<stop stop-color="#05A1E6" stop-opacity="0.247059"/>
<stop offset="1" stop-color="#05A1E6"/>
</linearGradient>
<linearGradient id="paint8_linear_2_15615" x1="40.8751" y1="95.8629" x2="40.8751" y2="-2.86327" gradientUnits="userSpaceOnUse">
<stop stop-color="#318ED5"/>
<stop offset="1" stop-color="#38A7E4"/>
</linearGradient>
<linearGradient id="paint9_linear_2_15615" x1="47.0893" y1="96.2104" x2="47.0893" y2="0.243146" gradientUnits="userSpaceOnUse">
<stop stop-color="#05A1E6"/>
<stop offset="1" stop-color="#05A1E6" stop-opacity="0.54902"/>
</linearGradient>
<linearGradient id="paint10_linear_2_15615" x1="52.2493" y1="101.108" x2="52.2493" y2="20.0141" gradientUnits="userSpaceOnUse">
<stop stop-color="#1959A6"/>
<stop offset="0.5" stop-color="#05A1E6"/>
<stop offset="0.917587" stop-color="#7EC5EA"/>
<stop offset="1" stop-color="#7EC5EA"/>
</linearGradient>
<linearGradient id="paint11_linear_2_15615" x1="55.3565" y1="95.9273" x2="27.8678" y2="11.9202" gradientUnits="userSpaceOnUse">
<stop stop-color="#165096"/>
<stop offset="1" stop-color="#0D82CA"/>
</linearGradient>
<linearGradient id="paint12_linear_2_15615" x1="199.213" y1="46.2017" x2="199.213" y2="0.250818" gradientUnits="userSpaceOnUse">
<stop stop-color="#05A1E6"/>
<stop offset="0.873627" stop-color="#0495D6"/>
<stop offset="1" stop-color="#0495D6"/>
</linearGradient>
<linearGradient id="paint13_linear_2_15615" x1="220.811" y1="-3.99671" x2="177.985" y2="91.09" gradientUnits="userSpaceOnUse">
<stop stop-color="#38A7E4" stop-opacity="0.329412"/>
<stop offset="0.961533" stop-color="#0E88D3"/>
<stop offset="1" stop-color="#0E88D3"/>
</linearGradient>
<linearGradient id="paint14_linear_2_15615" x1="204.085" y1="-0.278469" x2="204.085" y2="99.9686" gradientUnits="userSpaceOnUse">
<stop stop-color="#168CD4"/>
<stop offset="0.5" stop-color="#1C87CC"/>
<stop offset="1" stop-color="#154B8D"/>
</linearGradient>
<linearGradient id="paint15_linear_2_15615" x1="76.2201" y1="-2.3402" x2="76.6545" y2="8.17347" gradientUnits="userSpaceOnUse">
<stop stop-color="#97D6EE"/>
<stop offset="0.703293" stop-color="#55C1EA"/>
<stop offset="1" stop-color="#55C1EA"/>
</linearGradient>
<linearGradient id="paint16_linear_2_15615" x1="89.5712" y1="9.15934" x2="91.5347" y2="-1.97753" gradientUnits="userSpaceOnUse">
<stop stop-color="#7ACCEC"/>
<stop offset="1" stop-color="#3FB7ED"/>
</linearGradient>
<linearGradient id="paint17_linear_2_15615" x1="190.514" y1="5.26351" x2="190.514" y2="103.315" gradientUnits="userSpaceOnUse">
<stop stop-color="#1DA7E7"/>
<stop offset="1" stop-color="#37ABE7" stop-opacity="0"/>
</linearGradient>
<clipPath id="clip0_2_15615">
<rect width="256" height="244" fill="white"/>
</clipPath>
</defs>
</svg>
