<svg width="256" height="231" viewBox="0 0 256 231" fill="none" xmlns="http://www.w3.org/2000/svg">
<g clip-path="url(#clip0_2_15550)">
<path d="M121.309 84.6733C123.403 81.5874 125.694 81.195 127.553 81.195C129.413 81.195 132.51 81.5874 134.604 84.6733C151.106 107.34 178.346 152.492 198.439 185.799C211.543 207.52 221.607 224.202 223.672 226.325C231.423 234.295 242.054 229.328 248.231 220.288C254.312 211.388 256 205.138 256 198.471C256 193.93 167.895 30.0714 159.022 16.4322C150.489 3.3136 147.71 0 133.106 0H122.177C107.616 0 105.511 3.3136 96.9777 16.4322C88.1055 30.0714 0.00012207 193.93 0.00012207 198.471C0.00012207 205.138 1.6884 211.388 7.76993 220.288C13.9471 229.328 24.5776 234.295 32.3286 226.325C34.3937 224.202 44.4581 207.52 57.5617 185.799C77.6548 152.492 104.807 107.34 121.309 84.6733Z" fill="#000020"/>
</g>
<defs>
<clipPath id="clip0_2_15550">
<rect width="256" height="231" fill="white"/>
</clipPath>
</defs>
</svg>
