<svg width="256" height="329" viewBox="0 0 256 329" fill="none" xmlns="http://www.w3.org/2000/svg">
<g clip-path="url(#clip0_2_15544)">
<path d="M76.5011 203.351C66.7518 195.681 56.3479 188.331 49.2401 177.974C34.2796 159.71 22.7642 138.569 14.8914 116.349C10.1306 101.899 8.50175 86.4077 2.36154 72.5186C-4.05321 62.4278 3.46638 51.4045 14.5181 48.1988C19.4346 47.2513 28.0858 42.6093 17.6434 45.9305C8.27911 52.7973 7.37683 39.6916 16.9772 38.8613C23.5292 37.9925 25.9414 32.6307 23.6983 27.8045C16.6625 23.2144 40.7529 18.1791 28.6299 11.3324C16.0096 -2.28888 46.2905 -4.91035 38.8178 10.5607C37.0316 22.4561 59.9838 8.37614 54.6538 22.1146C60.0692 28.7135 74.9259 23.6195 74.5526 32.8717C82.4388 33.4141 85.1456 40.0448 92.5413 40.5553C100.218 44.0205 114.121 46.7475 116.729 55.392C109.119 61.415 91.5018 42.9492 90.6514 59.6238C92.9531 84.2617 92.3655 109.641 101.377 133.102C105.639 147.306 115.977 158.487 125.308 169.552C134.241 180.386 146.338 188.018 158.671 194.439C169.486 199.54 181.146 202.919 192.936 205.045C197.715 201.389 206.157 187.795 213.611 193.523C213.971 199.972 198.815 206.994 212.9 206.281C221.178 203.783 226.913 212.675 233.726 204.652C240.004 212.088 259.817 199.905 255.351 215.103C249.309 219 240.501 216.645 234.453 222.008C224.481 217.025 216.541 226.461 205.497 225.271C193.237 227.467 180.759 228.351 168.33 228.369C147.934 226.76 127.108 226.081 107.706 218.98C96.7732 215.803 86.1082 209.577 76.5011 203.351ZM93.7248 210.819C104.397 215.429 114.834 220.294 126.532 221.765C145.09 224.342 164.255 228.317 182.878 224.695C174.45 220.89 165.733 226.173 157.337 221.975C147.268 224.139 136.459 221.419 126.217 220.078C114.578 214.894 102.011 211.33 91.11 204.593C77.4821 199.618 98.1525 210.976 101.834 211.899C110.348 216.73 92.4693 209.42 89.9449 207.412C82.8121 203.41 81.9031 204.247 89.2402 208.308C90.7167 209.172 92.1764 210.081 93.7248 210.819ZM73.4143 196.466C83.7595 200.298 73.369 189.194 68.635 189.836C66.5358 186.193 60.6115 183.891 64.7898 181.936C57.2769 184.546 56.917 172.016 53.3866 173.809C45.4351 171.298 50.293 162.404 40.8182 156.938C39.9544 151.183 31.4087 146.194 28.6885 137.516C27.4849 133.07 19.0295 120.313 24.2222 132.186C28.6416 143.617 36.4173 153.413 42.8906 163.189C47.9126 172.5 53.8503 182.237 62.9987 188.044C66.0855 191.006 69.0602 195.537 73.4143 196.466ZM43.6238 163.751C43.9821 162.188 45.5138 167.131 43.6238 163.751V163.751ZM85.8068 201.056C82.5107 199.762 88.0952 200.03 85.8068 201.056V201.056ZM91.4164 203.104C88.8535 204.686 90.8355 200.278 91.4164 203.104V203.104ZM98.4472 206.033C93.2879 204.024 101.788 202.847 98.4472 206.033V206.033ZM110.492 212.747C103.985 211.618 112.525 209.746 110.492 212.747V212.747ZM87.3636 196.624C80.6476 196.577 92.5547 193.262 87.3636 196.624V196.624ZM92.6334 199.252C90.7568 200.049 92.4827 197.479 92.6334 199.252V199.252ZM118.979 215.697C123.216 218.372 143.717 221.556 130.881 216.795C128.728 217.247 107.078 210.668 118.979 215.697ZM77.1556 183.119C70.5768 181.151 76.7438 181.342 77.1556 183.119V183.119ZM89.416 190.274C82.792 188.553 92.6133 188.044 89.416 190.274V190.274ZM99.7345 196.597C92.307 194.864 104.318 194.871 99.7345 196.597V196.597ZM72.1588 177.686C77.1288 181.497 92.2082 178.176 79.7704 175.411C74.114 172.396 61.3632 170.33 70.0545 177.229L72.1588 177.686ZM106.725 198.781C98.0404 196.766 108.797 195.256 106.725 198.781V198.781ZM96.2224 190.436C108.372 193.87 86.0027 182.746 93.2226 189.168L94.8246 189.894L96.2224 190.436ZM117.28 202.606C106.882 201.018 128.788 202.717 117.28 202.606V202.606ZM67.7327 171.028C64.8953 171.206 67.2807 168.884 67.7327 171.028V171.028ZM136.746 213.526C132.992 216.41 137.053 209.656 136.746 213.526V213.526ZM87.3754 183.054C83.7796 182.969 86.6756 181.014 87.3754 183.054V183.054ZM68.8242 169.682C59.7745 166.773 75.4297 169.284 68.8242 169.682V169.682ZM46.8463 155.478C39.6598 149.784 46.0227 152.308 46.8463 155.478V155.478ZM104.541 192.092C103.332 190.711 103.971 192.392 104.541 192.092V192.092ZM140.446 214.129C138.491 214.925 140.336 212.016 140.446 214.129V214.129ZM101.363 188.809C95.7269 187.984 102.011 186.089 101.363 188.809V188.809ZM74.6112 171.853C66.7317 168.531 79.5294 171.329 74.6112 171.853V171.853ZM119.863 199.972C112.395 198.493 127.526 196.937 119.863 199.972V199.972ZM96.3279 183.997C105.155 185.133 85.8202 177.987 94.3861 183.355L96.3279 183.997ZM127.009 202.861C135.255 197.938 132.535 214.403 140.997 204.254C149.34 198.16 133.79 211.787 144.07 205.34C151.511 200.363 162.496 207.7 169.435 210.087C174.423 209.845 179.276 214.403 184.395 211.629C194.243 208.974 165.132 207.694 172.762 202.991C163.751 205.615 157.096 199.866 152.661 194.092C142.552 191.757 130.867 186.591 125.819 177.64C123.76 174.286 128.788 178.118 124.041 172.625C117.953 167.21 114.913 161.056 110.825 154.472C105.94 151.869 105.364 144.199 104.874 154.218C104.914 147.894 98.9762 143.637 97.5248 145.403C97.498 139.314 103.881 142.368 99.4147 137.863C98.4539 131.552 95.2883 124.975 94.3392 117.847C92.8627 114.414 94.1299 107.058 89.2921 114.832C87.5327 123.051 88.7095 104.736 91.4499 110.771C95.0456 104.612 90.1542 105.337 89.9583 106.188C92.3003 100.99 91.4432 93.6126 89.344 96.4249C90.5928 90.9125 91.3193 76.1411 87.4808 78.7626C89.8077 72.9957 91.8952 52.3838 81.7842 60.2449C77.6913 60.3035 70.5969 61.7297 67.2489 63.397C77.7566 69.1907 66.1893 65.4895 61.9055 64.5671C61.3498 69.9289 57.1129 67.6138 51.8164 67.6657C60.2784 68.7119 47.6967 76.3169 42.8521 73.3623C36.5479 76.3705 48.2859 83.8901 42.976 86.2169C43.6305 89.7156 33.3237 84.9497 34.1289 93.0451C28.0138 90.4672 33.2919 102.644 36.352 98.5241C46.7559 101.343 43.6757 107.758 43.9369 113.858C42.2428 117.408 35.5669 105.508 42.452 106.057C37.0183 97.2351 36.4441 102.866 31.931 106.966C30.8847 107.261 43.4397 112.798 35.5602 115.532C42.4922 116.605 42.6948 122.673 44.1076 126.512C48.2725 130.852 47.4154 121.717 52.4056 126.937C49.2468 122.286 35.6908 113.838 46.6052 116.546C46.5466 111.871 44.6299 108.098 47.9779 108.188C51.2941 102.192 44.506 122.98 51.9737 115.356C54.0394 114.454 54.5567 109.353 58.2713 115.84C63.6649 121.15 60.2198 124.993 52.6082 120.129C53.9675 124.752 62.7894 126.399 61.1288 133.626C62.8865 139.982 65.3456 137.64 67.49 137.274C69.1707 143.447 70.1265 138.909 70.2052 135.966C77.9006 137.615 76.096 142.165 78.5082 145.344C83.8114 147.736 70.9167 129.12 80.0198 139.746C89.5984 148.397 83.6156 152.007 75.0179 150.62C80.4584 150.182 82.2094 157.978 89.0176 157.703C95.2231 160.658 99.4281 171.997 88.7296 167.275C85.0217 163.927 71.8842 159.801 82.6162 166.164C92.5162 170.754 100.389 173.494 109.942 179.256C116.776 184.134 119.73 189.723 122.32 190.83C116.573 193.575 105.006 188.639 113.597 187.129C108.235 186.154 102.207 183.441 107.339 190.117C111.707 193.766 122.804 193.379 124.799 193.791C123.112 197.506 120.216 197.8 124.864 198.088C119.678 200.854 126.532 201.286 127.009 202.861ZM116.402 172.906C113.244 169.604 112.427 163.425 115.84 168.798C117.593 169.505 121.445 178.903 116.402 172.906ZM150.949 194.851C151.007 196.347 152.917 194.72 150.949 194.851V194.851ZM111.421 164.811C111.295 159.821 112.557 168.661 111.421 164.811V164.811ZM107.987 160.194C104.012 152.524 112.989 162.365 107.987 160.194V160.194ZM66.3718 131.475C67.5235 135.462 68.707 130.852 66.3718 131.475V131.475ZM99.4934 149.424C100.925 144.042 101.174 153.937 99.4934 149.424V149.424ZM76.096 133.154C74.4488 130.186 79.5427 135.941 76.096 133.154V133.154ZM96.1705 139.589C92.4108 131.167 98.8389 134.985 97.0075 140.968L96.1705 139.589ZM61.5473 116.499C59.8666 113.734 57.0878 105.625 57.9834 103.148C58.7869 107.182 66.5559 120.502 61.7884 108.667C56.5253 98.7468 68.0859 111.883 69.2761 114.362C69.8319 116.821 66.0252 113.689 68.6015 119.462C63.9009 112.89 65.8294 123.092 61.5473 116.499ZM50.8488 109.124C51.2874 102.696 53.2945 113.531 50.8488 109.124V109.124ZM55.6615 110.784C57.9566 105.933 59.5519 117.546 55.6615 110.784V110.784ZM44.0808 101.827C40.0984 97.8629 37.2141 94.2152 44.27 99.3678C46.9835 99.4716 38.2286 91.0698 44.9245 96.6995C51.9603 97.9817 48.3964 108.242 44.0808 101.827ZM50.1625 101.67C51.3912 103.926 52.4776 99.3745 50.1625 101.67V101.67ZM53.9089 102.866C50.3968 96.2943 58.1658 105.625 53.9089 102.866V102.866ZM46.468 95.7587C34.8873 85.4452 61.0166 101.146 48.3579 97.667L46.468 95.7587ZM79.6532 115.035C74.6379 112.033 78.3191 93.8821 80.0332 106.293C84.9045 104.716 79.7637 112.708 83.3929 112.629C82.8255 117.67 81.1967 119.483 79.6532 115.035ZM91.927 122.293C92.4174 116.821 92.9598 126.035 91.927 122.293V122.293ZM89.796 120.181C89.8479 122.934 90.345 117.847 89.796 120.181V120.181ZM48.7362 92.3705C41.2953 82.1039 70.3609 102.754 53.5038 94.9736C51.7444 94.5099 49.6201 94.3458 48.7362 92.3705ZM72.3747 104.9C71.67 96.2559 73.9449 106.332 72.3747 104.9V104.9ZM90.3183 116.414C90.4237 119.672 91.7043 111.491 90.3183 116.414V116.414ZM49.8812 88.4534C54.3023 87.5059 68.2031 96.2157 55.4389 90.9392C54.021 89.369 50.9928 90.0822 49.8812 88.4534ZM87.8525 107.378C88.3245 98.5375 90.4957 102.101 87.8725 108.647L87.8525 107.378ZM53.1706 85.3749C54.9752 82.7317 48.383 73.4276 54.1181 82.0386C56.5973 84.0072 61.2912 85.3347 57.1464 86.165C63.6649 91.9135 55.5577 87.7218 53.1706 85.3749ZM85.9759 104.619C87.0757 110.517 87.2197 94.5484 85.9759 104.619V104.619ZM49.4041 76.0758C50.1357 77.9122 50.7835 75.4866 49.4041 76.0758V76.0758ZM57.9633 81.1698C60.1663 76.5462 62.0244 86.3224 57.9633 81.1698V81.1698ZM82.0989 94.5936C82.0788 92.8225 82.5559 97.1766 82.0989 94.5936V94.5936ZM80.6995 91.5017C77.3515 83.2355 83.8181 95.8758 80.6995 91.5017V91.5017ZM78.6455 86.0796C78.0847 82.6664 80.5555 90.3701 78.6455 86.0796V86.0796ZM81.9935 80.6392C79.6917 76.5914 84.8979 62.7877 85.4804 71.3485C83.0531 78.0177 84.7807 81.7457 86.4664 72.7998C89.5934 65.764 85.7934 86.6957 81.9935 80.6392ZM85.4335 60.1143C85.6562 61.5975 86.4346 58.8839 85.4335 60.1143V60.1143ZM79.6867 173.325C78.3258 172.135 79.8625 174.077 79.6867 173.325V173.325ZM91.5219 179.308C98.1057 181.002 98.0739 178.287 92.1228 177.476C88.9255 174.502 78.8229 171.343 87.8658 177.11C88.4618 178.628 90.3517 178.588 91.5219 179.308ZM68.1512 163.783C71.7737 166.492 81.811 171.447 73.3172 164.818C76.1814 161.488 67.8365 159.717 70.6036 157.487C63.5611 153.177 65.0443 153.563 69.9826 153.701C61.5205 149.914 71.2046 150.202 70.7476 148.26C67.485 147.619 54.5366 142.505 62.155 148.679C54.4127 144.735 60.3102 150.15 57.97 149.581C50.0503 147.423 65.0192 155.611 56.7145 153.577C61.2527 157.173 68.9363 162.797 58.6295 157.382C57.2769 159.337 66.0068 162.3 68.1512 163.783ZM80.5287 170.898C73.1464 164.967 95.5763 175.744 80.5287 170.898V170.898ZM143.893 209.282C141.839 211.832 144.089 206.294 143.893 209.282V209.282ZM150.406 212.023C153.878 208.661 150.55 217.384 156.16 211.199C156.218 206.771 155.991 204.157 149.713 209.537C147.979 210.499 147.209 214.572 150.406 212.023ZM47.0237 147.097C39.5493 142.923 45.9574 142.905 47.0237 147.097V147.097ZM53.9741 151.653C44.7605 147.776 51.3912 147.371 53.9741 151.653V151.653ZM93.5424 175.514C97.4076 178.948 111.283 178.032 98.2312 175.94C96.3011 173.082 85.9642 173.769 93.5424 175.514ZM147.927 209.107C142.167 211.33 153.871 204.116 147.927 209.107V209.107ZM160.293 217.6C157.73 218.3 160.331 215.998 160.293 217.6V217.6ZM160.313 215.357C153.937 215.769 166.897 208.387 160.313 215.357V215.357ZM29.9172 132.776C24.3076 124.772 26.4319 121.175 21.0182 114.636C19.9904 109.634 11.7326 98.2948 16.7479 110.307C21.3379 117.336 22.6989 128.217 29.9172 132.776ZM158.246 213.141C153.277 209.734 170.364 205.313 158.246 213.141V213.141ZM167.493 216.763C163.654 215.677 173.561 211.557 167.493 216.763V216.763ZM44.963 138.248C40.4784 137.915 46.6973 135.665 44.963 138.248V138.248ZM165.563 214.291C171.435 210.506 164.21 211.087 164.498 214.637L165.563 214.291ZM85.8654 164.058C82.7602 164.274 85.6629 161.495 85.8654 164.058V164.058ZM90.7886 166.89C88.3831 167.387 89.2201 163.725 90.7886 166.89V166.89ZM174.986 216.849C182.512 211.42 170.429 215.808 173.41 217.882L174.986 216.849ZM172.103 215.456C165.635 217.731 178.236 210.322 172.103 215.456V215.456ZM186.827 225.257C181.826 224.368 190.942 222.504 186.827 225.257V225.257ZM48.7362 136.385C54.2487 137.62 70.7794 149.966 61.03 137.242C56.0348 135.764 59.0296 123.555 53.9356 125.713C57.3556 131.428 56.7463 133.854 49.5665 130.258C40.5504 125.85 44.4993 132.436 46.2654 134.254C43.8582 134.803 49.4426 136.34 48.7362 136.385ZM23.6079 116.54C24.5939 112.452 14.5114 94.0713 18.847 107.326C20.4089 110.105 20.2465 115.368 23.6079 116.54ZM69.7331 144.977C66.889 142.604 69.5959 144.638 69.7331 144.977V144.977ZM76.7237 146.606C68.9949 144.847 76.7237 142.277 76.7237 146.606V146.606ZM137.341 184.814C132.771 184.748 136.184 181.857 137.341 184.814V184.814ZM140.25 186.938C138.569 187.259 139.818 185.284 140.25 186.938V186.938ZM164.275 202.076C161.391 201.855 166.584 200.37 164.275 202.076V202.076ZM36.1561 119.744C29.0735 117.919 42.7668 117.186 36.1561 119.744V119.744ZM132.004 180.125C127.787 181.191 131.927 175.848 132.004 180.125V180.125ZM33.5464 113.655C29.6159 112.715 37.79 112.224 33.5464 113.655V113.655ZM45.8653 119.625C44.5646 120.162 45.7933 118.22 45.8653 119.625V119.625ZM196.167 211.793C201.626 210.688 214.07 214.572 216.077 210.349C209.446 210.185 193.145 205.666 192.373 211.42L193.825 211.649L196.167 211.793ZM49.7825 120.612C46.4027 120.45 49.8812 116.277 49.7825 120.612V120.612ZM17.389 98.1391C11.7912 96.8886 15.9176 89.8796 17.389 98.1391V98.1391ZM25.1111 100.081C18.0418 97.6938 25.2099 97.426 25.1111 100.081V100.081ZM29.5255 102.252C28.2499 101.218 28.5311 103.553 29.5255 102.252V102.252ZM57.3087 120.07C54.2102 119.181 58.6178 118.866 57.3087 120.07V120.07ZM26.5893 97.3607C17.6367 96.4249 25.8376 91.1217 26.5893 97.3607V97.3607ZM10.7449 87.0807C9.20148 88.1654 10.5223 84.2031 10.7449 87.0807V87.0807ZM13.1052 85.3029C11.078 85.7331 12.7202 81.888 13.1052 85.3029V85.3029ZM26.1189 93.0702C31.6246 90.9125 16.0933 88.5973 24.9939 92.6651L26.1189 93.0702ZM200.345 200.69C195.872 199.69 203.869 197.461 200.345 200.69V200.69ZM221.394 211.597C217.836 212.147 222.807 207.426 221.394 211.597V211.597ZM27.4514 86.2504C23.0839 87.0539 28.0339 82.2094 27.4514 86.2504V86.2504ZM8.92695 73.8394C7.9326 68.1378 8.06986 58.1256 17.5849 61.5071C4.88593 64.0314 26.38 77.2979 23.6665 66.822C29.0082 67.0848 34.1155 63.6648 31.3099 68.8492C41.8377 67.6925 49.1296 58.5642 59.2975 59.8465C67.2154 58.7935 75.8733 58.0017 84.4074 54.8111C91.4231 54.3072 98.1777 46.7542 94.3342 42.2745C84.7673 41.4643 74.7484 42.6612 64.1755 44.7671C52.4575 47.1994 41.8126 51.828 29.9892 53.8167C18.4604 55.3669 32.3043 58.0804 29.0015 58.6881C22.9919 60.7739 36.1746 62.18 28.2231 64.383C23.3133 63.4489 18.1992 61.7615 20.2984 56.5822C9.26007 58.0218 -0.444074 62.5985 8.27911 73.8327L8.92695 73.8394ZM35.5351 60.2901C38.1181 50.7567 49.3974 68.1378 39.772 61.559C38.627 60.6952 36.7303 59.9954 35.5351 60.2901ZM36.0373 55.6665C38.0193 57.23 39.772 52.8877 36.0373 55.6665V55.6665ZM40.778 55.7452C41.1195 51.3576 51.6406 58.067 42.5123 57.3221L40.778 55.7452ZM47.2648 53.1371C47.9528 55.5945 49.6385 50.3633 47.2648 53.1371V53.1371ZM48.9271 52.0256C52.876 47.2848 71.2699 48.9973 57.8059 51.5602C54.1968 48.8399 51.4314 53.1622 48.9271 52.0256ZM72.9372 48.3244C72.3429 35.3693 84.8711 52.9211 72.9372 48.3244V48.3244ZM79.752 48.2842C82.2429 41.7589 89.4227 45.6627 80.9087 46.9701C81.0912 47.6698 80.6543 50.3449 79.752 48.2842ZM24.7646 82.9024C16.865 78.9467 32.2055 78.3441 24.7646 82.9024V82.9024ZM30.2704 84.4257C24.5939 83.3008 32.8801 81.6536 30.2704 84.4257V84.4257ZM14.0544 72.9237C9.01902 71.6816 18.3047 69.6544 14.0544 72.9237V72.9237ZM233.818 210.407C230.567 212.113 233.942 206.614 233.818 210.407V210.407ZM211.487 195.164C208.616 195.544 212.121 190.803 211.487 195.164V195.164ZM239.958 211.879C245.903 211.899 257.972 210.027 245.039 210.034C243.005 210.349 233.21 210.283 239.958 211.879ZM35.1099 81.7507C39.9226 81.4243 42.6362 76.4475 34.1741 76.7287C21.0634 75.3761 45.7414 81.2217 32.4934 79.5477C30.7157 80.7245 35.0044 82.0788 35.1099 81.7507ZM39.3468 83.8967C37.8553 85.5373 38.8429 80.8099 39.3468 83.8967V83.8967ZM44.3755 70.4914C41.4845 69.7984 46.4613 67.9017 44.3755 70.4914V70.4914ZM28.3671 43.7393C36.9597 40.8232 48.7044 37.5405 52.7588 45.1789C48.6324 40.2155 51.0915 35.3241 54.9886 42.5892C60.5011 49.9331 63.2598 39.248 59.6758 36.7822C63.7637 41.856 68.4057 44.2565 62.4094 37.1036C68.9296 29.2626 49.364 38.1297 44.9178 38.0377C42.7801 38.9985 22.8295 43.1249 28.3671 43.7393ZM33.4024 34.1021C38.3005 30.4076 50.3449 36.3051 42.6161 30.426C41.8578 29.7598 25.6937 34.8855 33.4024 34.1021ZM51.2606 34.8403C56.989 34.9843 48.7898 27.1366 55.6163 30.6938C54.4981 27.0328 47.6649 26.3465 44.3236 24.8817C42.4336 28.2297 48.1671 34.8855 51.2606 34.8403ZM36.5345 18.6294C33.0559 19.997 38.5165 15.9426 36.5345 18.6294V18.6294ZM43.8331 20.3753C53.0719 19.1533 41.4778 16.3996 41.9683 20.2782L43.8331 20.3753ZM30.2051 9.71701C23.6983 1.22316 42.4403 11.1433 35.828 2.24932C30.2637 -2.17672 24.922 7.2395 30.2051 9.71701ZM113.675 54.6738C116.659 49.389 101.363 47.5459 111.668 52.8023C112.616 53.117 112.402 55.0387 113.675 54.6738Z" fill="black"/>
<path d="M53.1076 251.495C52.4484 254.101 52.0391 258.474 51.8857 264.612C51.8857 265.818 51.3426 266.421 50.2543 266.421C49.165 266.421 48.4074 265.895 47.9783 264.846C46.8123 262.008 45.7075 260.029 44.6544 258.899C43.4117 257.58 41.7597 256.782 39.6992 256.51C37.4844 256.159 31.9664 255.985 23.1442 255.985C21.1242 255.985 19.8007 256.199 19.1809 256.628C18.7922 256.899 18.5984 257.482 18.5984 258.377V284.786C18.5984 285.681 19.1612 286.105 20.2857 286.069C23.7474 286.029 28.7596 285.794 35.3265 285.369C36.6096 285.211 37.4761 284.794 37.9217 284.113C38.3716 283.434 38.8089 281.677 39.2339 278.838C39.5044 277.283 40.4196 276.68 41.9742 277.033C43.2946 277.304 43.8616 277.907 43.6667 278.838C42.5774 284.126 42.225 291.005 42.6137 299.478C42.6551 300.486 42.0146 301.032 40.6911 301.11C39.6018 301.227 38.9219 300.644 38.6504 299.36C37.6429 294.503 35.7639 291.907 33.0266 291.575C30.2863 291.247 25.8244 291.081 19.6462 291.081C18.9466 291.081 18.5984 291.332 18.5984 291.838V318.073C18.5984 320.017 19.3146 321.34 20.7521 322.037C21.8818 322.62 24.3102 323.146 28.0393 323.612C29.9464 323.806 30.7796 324.644 30.5496 326.118C30.3143 327.401 28.6062 327.907 25.4161 327.636C16.2053 326.896 8.60611 326.936 2.62276 327.754C0.949949 327.984 0.116653 327.304 0.116653 325.713C0.116653 324.7 0.949949 324.118 2.62276 323.963C6.43167 323.534 8.33456 320.191 8.33456 313.936V264.028C8.33456 261.466 7.8775 259.494 6.96647 258.113C6.05129 256.733 4.3505 255.478 1.86512 254.352C0.310467 253.653 -0.272011 252.701 0.116653 251.495C0.310467 250.758 0.622434 250.348 1.04737 250.272C1.43604 250.155 2.46833 250.231 4.13596 250.506C6.58609 250.895 12.359 251.089 21.4517 251.089C32.1809 251.089 41.4477 250.854 49.2624 250.389C51.8649 250.231 53.1688 250.446 53.1688 251.028C53.1688 251.187 53.1491 251.34 53.1076 251.495Z" fill="black"/>
<path d="M90.9152 325.502C90.9152 327.057 90.0405 327.737 88.292 327.542C82.9315 327.036 76.2838 327.113 68.3561 327.773C66.7611 327.931 65.7816 327.89 65.4095 327.66C65.0406 327.425 64.8582 326.785 64.8582 325.732C64.8582 324.802 65.9153 324.016 68.0328 323.372C70.1543 322.733 71.2105 320.818 71.2105 317.632V264.871C71.2105 261.721 70.7534 259.409 69.8424 257.931C68.9272 256.454 67.3238 255.308 65.0323 254.494C63.8259 254.065 63.2227 253.462 63.2227 252.684C63.2227 251.518 64.0974 250.644 65.8459 250.061C68.4898 249.206 71.2312 247.887 74.069 246.097C76.401 244.696 77.8789 244 78.4977 244C79.9352 244 80.6566 244.988 80.6566 246.971C80.6566 246.818 80.5788 248.761 80.4213 252.801C80.3083 256.648 80.2679 260.437 80.3083 264.17L80.5384 316.23C80.5384 318.603 81.1219 320.324 82.2879 321.393C83.4539 322.461 85.4573 323.17 88.292 323.519C90.0405 323.712 90.9152 324.373 90.9152 325.502Z" fill="black"/>
<path d="M143.644 322.065C143.644 322.883 142.158 324.114 139.186 325.765C136.211 327.417 133.83 328.243 132.044 328.243C130.526 328.243 129.187 327.507 128.021 326.029C126.855 324.552 126.036 323.815 125.571 323.815C125.222 323.815 123.376 324.612 120.032 326.203C116.692 327.798 113.328 328.596 109.947 328.596C106.761 328.596 104.097 327.661 101.96 325.798C99.6275 323.737 98.4615 320.94 98.4615 317.401C98.4615 310.677 106.158 305.858 121.55 302.944C124.19 302.438 125.534 301.369 125.571 299.737L125.689 296.005C125.923 289.632 123.105 286.446 117.235 286.446C115.563 286.446 113.98 287.939 112.481 290.932C110.988 293.928 108.838 295.539 106.04 295.774C102.854 296.082 101.259 294.742 101.259 291.749C101.259 289.883 103.631 287.709 108.372 285.219C113.348 282.616 118.13 281.312 122.716 281.312C130.604 281.312 134.51 285.065 134.433 292.567L134.198 316.583C134.162 319.11 135.231 320.373 137.405 320.373C137.834 320.373 138.651 320.276 139.854 320.081C141.061 319.888 141.761 319.79 141.956 319.79C143.081 319.79 143.644 320.551 143.644 322.065ZM125.689 308.774C125.729 307.802 125.502 307.158 125.016 306.85C124.53 306.539 123.765 306.478 122.716 306.673C113.348 308.345 108.664 311.397 108.664 315.827C108.664 320.296 111.093 322.531 115.951 322.531C117.895 322.531 119.899 322.163 121.956 321.426C124.368 320.568 125.571 319.539 125.571 318.333L125.689 308.774Z" fill="black"/>
<path d="M186.988 315.357C186.988 319.478 185.4 322.754 182.235 325.183C179.068 327.612 174.744 328.827 169.263 328.827C165.611 328.827 161.955 328.438 158.303 327.661C155.154 326.96 153.327 326.321 152.822 325.737C152.51 325.191 152.356 322.532 152.356 317.749C152.356 315.689 152.822 314.62 153.757 314.544C154.688 314.426 155.485 314.932 156.146 316.058C159.06 321.151 163.764 323.698 170.255 323.698C175.732 323.698 178.473 321.791 178.473 317.981C178.473 316.313 177.854 314.912 176.607 313.786C175.246 312.503 172.607 311.005 168.68 309.296C163.004 306.771 159.214 304.556 157.312 302.649C155.25 300.629 154.222 297.908 154.222 294.487C154.222 290.288 155.834 287.025 159.06 284.693C162.052 282.438 166.056 281.312 171.068 281.312C174.218 281.312 177.093 281.563 179.7 282.07C182.498 282.576 183.955 283.196 184.072 283.936C184.38 286.11 185.024 289.26 185.996 293.382C186.113 293.883 185.566 294.293 184.364 294.604C183.08 294.875 182.226 294.661 181.797 293.964C178.728 288.948 174.842 286.442 170.137 286.442C164.813 286.442 162.15 288.151 162.15 291.572C162.15 293.478 162.87 294.992 164.307 296.118C165.591 297.09 168.602 298.609 173.344 300.669C178.319 302.806 181.7 304.73 183.49 306.438C185.822 308.653 186.988 311.628 186.988 315.357Z" fill="black"/>
<path d="M255.575 325.559C255.575 326.919 254.66 327.64 252.834 327.717C250.113 327.758 246.554 327.951 242.166 328.3C239.988 328.729 238.433 328.458 237.502 327.486C231.36 320.879 226.15 313.96 221.874 306.729C221.526 306.11 221.08 305.798 220.534 305.798C219.874 305.798 218.729 306.381 217.097 307.547C215.267 308.556 214.356 309.996 214.356 311.859C214.356 313.182 214.392 315.085 214.473 317.576C214.551 320.061 215.17 321.692 216.336 322.47C217.153 323.017 219.041 323.442 221.991 323.754C223.818 323.988 224.733 324.668 224.733 325.794C224.733 326.689 224.587 327.244 224.295 327.454C224.004 327.668 223.234 327.717 221.991 327.6C218.105 327.252 211.538 327.446 202.288 328.183C199.956 328.377 198.692 328.085 198.497 327.308C198.421 327.037 198.38 326.649 198.38 326.142C198.38 324.94 199.567 324.024 201.939 323.406C204.077 322.858 205.145 320.352 205.145 315.883V264.928C205.145 261.742 204.834 259.527 204.21 258.284C203.356 256.689 201.566 255.445 198.846 254.551C197.567 254.126 196.923 253.523 196.923 252.745C196.923 251.616 197.838 250.741 199.663 250.122C202.579 249.15 205.356 247.81 207.999 246.098C210.138 244.701 211.461 244 211.963 244C213.559 244 214.356 245.008 214.356 247.033C214.356 246.758 214.336 248.685 214.295 252.802C214.259 255.64 214.239 259.45 214.239 264.231L214.356 300.725C214.356 301.737 214.628 302.239 215.17 302.239C215.753 302.239 216.648 301.737 217.854 300.725C221.08 298.198 225.045 294.895 229.745 290.814C230.68 289.843 231.145 289.065 231.145 288.482C231.145 287.434 229.571 286.693 226.425 286.268C225.064 286.109 224.421 285.353 224.498 283.992C224.615 282.632 225.296 282.049 226.538 282.243C229.34 282.632 233.421 282.847 238.781 282.887C242.514 282.923 246.226 282.944 249.919 282.944C251.122 282.985 251.725 283.701 251.725 285.102C251.725 286.421 250.773 287.142 248.87 287.26C245.874 287.373 243.056 288.053 240.417 289.3C236.724 290.968 232.777 293.903 228.579 298.102C228.271 298.336 228.113 298.627 228.113 298.976C228.113 299.519 228.773 300.823 230.097 302.883C234.955 310.268 239.542 315.843 243.854 319.615C246.615 321.985 249.198 323.17 251.607 323.17C253.396 323.17 254.505 323.296 254.93 323.551C255.361 323.803 255.575 324.474 255.575 325.559Z" fill="black"/>
</g>
<defs>
<clipPath id="clip0_2_15544">
<rect width="256" height="329" fill="white"/>
</clipPath>
</defs>
</svg>
