<svg width="256" height="256" viewBox="0 0 256 256" fill="none" xmlns="http://www.w3.org/2000/svg">
<g clip-path="url(#clip0_2_15442)">
<path d="M251.172 116.594L139.399 4.82845C132.966 -1.60948 122.526 -1.60948 116.085 4.82845L92.8754 28.0382L122.318 57.4808C129.16 55.1691 137.006 56.7196 142.46 62.1744C147.941 67.6629 149.48 75.5755 147.112 82.4404L175.487 110.816C182.352 108.451 190.273 109.981 195.756 115.473C203.419 123.133 203.419 135.548 195.756 143.213C188.091 150.879 175.675 150.879 168.007 143.213C162.243 137.444 160.819 128.978 163.738 121.877L137.275 95.4146L137.272 165.052C139.14 165.979 140.904 167.212 142.46 168.763C150.123 176.423 150.123 188.838 142.46 196.509C134.795 204.171 122.374 204.171 114.72 196.509C107.057 188.838 107.057 176.423 114.72 168.763C116.613 166.872 118.804 165.443 121.141 164.482V94.1956C118.804 93.2405 116.616 91.8193 114.72 89.9148C108.914 84.1173 107.518 75.598 110.493 68.4691L81.4714 39.4422L4.83129 116.077C-1.60945 122.52 -1.60945 132.961 4.83129 139.399L116.605 251.167C123.04 257.605 133.478 257.605 139.921 251.167L251.172 139.918C257.61 133.478 257.61 123.031 251.172 116.594Z" fill="#DE4C36"/>
</g>
<defs>
<clipPath id="clip0_2_15442">
<rect width="256" height="256" fill="white"/>
</clipPath>
</defs>
</svg>
