<svg width="256" height="206" viewBox="0 0 256 206" fill="none" xmlns="http://www.w3.org/2000/svg">
<g clip-path="url(#clip0_2_15401)">
<path d="M170.252 56.8185L192.505 34.5655L193.988 25.1955C153.437 -11.6775 88.9757 -7.49646 52.4207 33.9195C42.2667 45.4225 34.7337 59.7635 30.7167 74.5725L38.6867 73.4495L83.1917 66.1105L86.6277 62.5965C106.425 40.8545 139.898 37.9295 162.756 56.4285L170.252 56.8185Z" fill="#EA4335"/>
<path d="M224.205 73.9173C219.09 55.0813 208.589 38.1483 193.988 25.1953L162.756 56.4273C175.944 67.2033 183.457 83.4373 183.135 100.464V106.008C198.486 106.008 210.932 118.453 210.932 133.804C210.932 149.156 198.486 161.289 183.135 161.289H127.464L121.998 167.223V200.563L127.464 205.794H183.135C223.065 206.105 255.687 174.3 255.998 134.37C256.186 110.167 244.253 87.4773 224.205 73.9173Z" fill="#4285F4"/>
<path d="M71.8704 205.795H127.463V161.289H71.8704C67.9094 161.288 64.0734 160.437 60.4714 158.791L52.5844 161.211L30.1754 183.464L28.2234 191.038C40.7904 200.527 56.1234 205.863 71.8704 205.795Z" fill="#34A853"/>
<path d="M71.8704 61.4262C31.9394 61.6642 -0.236597 94.2282 0.00140341 134.158C0.134403 156.456 10.5484 177.446 28.2234 191.039L60.4714 158.792C46.4804 152.471 40.2634 136.006 46.5844 122.016C52.9044 108.026 69.3704 101.809 83.3594 108.129C89.5244 110.914 94.4614 115.852 97.2464 122.016L129.494 89.7692C115.773 71.8322 94.4534 61.3452 71.8704 61.4262Z" fill="#FBBC05"/>
</g>
<defs>
<clipPath id="clip0_2_15401">
<rect width="256" height="206" fill="white"/>
</clipPath>
</defs>
</svg>
