<svg width="256" height="361" viewBox="0 0 256 361" fill="none" xmlns="http://www.w3.org/2000/svg">
<path d="M255.555 70.7656L232.314 331.125L127.844 360.088L23.6617 331.166L0.44519 70.7656H255.555Z" fill="#E44D26"/>
<path d="M128 337.951L212.417 314.547L232.278 92.0576H128V337.951Z" fill="#F16529"/>
<path d="M82.8202 155.933H128V123.995H47.917L48.6815 132.563L56.531 220.573H128V188.637H85.7389L82.8202 155.933Z" fill="#EBEBEB"/>
<path d="M90.0178 236.542H57.958L62.4324 286.688L127.853 304.849L128 304.808V271.58L127.86 271.618L92.2915 262.013L90.0178 236.542Z" fill="#EBEBEB"/>
<path d="M127.89 220.572H167.217L163.509 261.992L127.89 271.606V304.833L193.362 286.687L193.843 281.292L201.348 197.212L202.127 188.636H127.89V220.572Z" fill="white"/>
<path d="M127.89 155.854V155.933H205.033L205.674 148.754L207.129 132.563L207.892 123.995H127.89V155.854Z" fill="white"/>
</svg>
