<svg width="256" height="361" viewBox="0 0 256 361" fill="none" xmlns="http://www.w3.org/2000/svg">
<g clip-path="url(#clip0_2_15215)">
<path d="M255.555 70.7656L232.314 331.125L127.844 360.088L23.6617 331.166L0.44519 70.7656H255.555Z" fill="#E44D26"/>
<path d="M128 337.951L212.417 314.547L232.278 92.0576H128V337.951Z" fill="#F16529"/>
<path d="M82.8202 155.933H128V123.995H47.917L48.6815 132.563L56.531 220.573H128V188.637H85.7389L82.8202 155.933Z" fill="#EBEBEB"/>
<path d="M90.0178 236.542H57.958L62.4324 286.688L127.853 304.849L128 304.808V271.58L127.86 271.618L92.2915 262.013L90.0178 236.542Z" fill="#EBEBEB"/>
<path d="M24.1808 0H40.4107V16.0352H55.2573V0H71.488V48.5584H55.258V32.2982H40.4114V48.5584H24.1815V0H24.1808Z" fill="black"/>
<path d="M92.831 16.1027H78.5428V0H123.357V16.1027H109.062V48.5584H92.8317V16.1027H92.831Z" fill="black"/>
<path d="M130.469 0H147.393L157.803 17.062L168.203 0H185.132V48.5584H168.969V24.4902L157.803 41.7554H157.524L146.35 24.4902V48.5584H130.469V0Z" fill="black"/>
<path d="M193.21 0H209.445V32.5078H232.269V48.5584H193.21V0Z" fill="black"/>
<path d="M127.89 220.572H167.217L163.509 261.992L127.89 271.606V304.833L193.362 286.687L193.843 281.292L201.348 197.212L202.127 188.636H127.89V220.572Z" fill="white"/>
<path d="M127.89 155.854V155.933H205.033L205.674 148.754L207.129 132.563L207.892 123.995H127.89V155.854Z" fill="white"/>
</g>
<defs>
<clipPath id="clip0_2_15215">
<rect width="256" height="361" fill="white"/>
</clipPath>
</defs>
</svg>
