<svg width="256" height="417" viewBox="0 0 256 417" fill="none" xmlns="http://www.w3.org/2000/svg">
<g clip-path="url(#clip0_2_15106)">
<path d="M250.741 169.277C250.741 238.734 195.671 295.094 127.702 295.094C59.7333 295.094 4.66357 238.734 4.66357 169.277C4.66357 99.8196 59.7333 43.46 127.702 43.46C195.671 43.46 250.741 99.8196 250.741 169.277Z" fill="#D33833"/>
<path d="M9.72403 200.434C9.72403 200.434 0.793793 69.2589 121.749 65.4884L113.315 51.3984L47.7271 73.4263L28.9736 94.9581L12.6015 126.313L3.27441 162.828L6.05271 187.237" fill="#EF3D3A"/>
<path d="M43.4605 83.4482C21.9287 105.575 8.53333 136.037 8.53333 169.774C8.53333 203.51 21.9287 233.972 43.4605 256.099C65.0915 278.226 94.7597 291.82 127.702 291.82C160.645 291.82 190.313 278.226 211.944 256.099C233.476 233.972 246.871 203.51 246.871 169.774C246.871 136.037 233.476 105.575 211.944 83.4482C190.313 61.4202 160.645 47.7272 127.702 47.7272C94.8589 47.7272 65.0915 61.321 43.4605 83.4482ZM38.0031 261.358C15.0822 237.941 0.893021 205.495 0.893021 169.774C0.893021 134.053 15.0822 101.606 38.0031 78.09C60.924 54.673 92.676 40.0869 127.702 40.0869C162.729 40.0869 194.481 54.673 217.402 78.09C240.322 101.507 254.512 133.954 254.512 169.774C254.512 205.495 240.322 237.941 217.402 261.358C194.481 284.875 162.729 299.361 127.702 299.361C92.676 299.361 60.924 284.875 38.0031 261.358Z" fill="#231F20"/>
<path d="M179.498 169.972L160.744 172.75L135.442 175.627L119.07 176.024L103.095 175.528L90.8899 171.758L80.0744 160.049L71.6403 136.136L69.755 130.976L58.5426 127.206L51.9938 116.39L47.3302 100.911L52.4899 87.3173L64.6946 83.0507L74.5178 87.7142L79.1814 98.0336L84.8372 97.1406L86.7225 94.7592L84.8372 83.9437L84.3411 70.3499L87.1194 51.5964L87.0202 40.8801L95.5535 27.1871L110.536 16.3716L136.732 5.15918L165.805 9.42585L191.107 27.6832L202.816 46.4367L210.357 60.0305L212.242 93.7669L206.586 122.84L196.267 148.638L186.543 162.431" fill="#F0D6B7"/>
<path d="M163.622 251.039L96.645 253.817V265.03L102.301 304.422L99.5225 307.696L52.6884 291.721L49.414 286.065L44.7504 233.079L33.7364 201.327L31.355 193.786L68.862 167.988L80.5705 163.324L90.8899 176.025L99.8202 183.963L110.14 187.237L114.803 188.627L120.459 213.036L124.726 218.196L135.541 214.425L128 229.011L168.682 248.261L163.622 251.039Z" fill="#335061"/>
<path d="M52.4899 87.5165L64.6946 83.2498L74.5178 87.9134L79.1814 98.2327L84.8372 97.3397L86.2263 91.6839L83.4481 80.8684L86.2263 55.07L83.845 40.98L92.2791 31.1568L110.536 16.67L105.377 9.625L79.5783 22.3258L68.7628 30.7599L62.7101 43.8576L53.3829 56.5583L50.6046 71.5413L52.4899 87.5165Z" fill="#6D6B6D"/>
<path d="M71.7395 43.4602C71.7395 43.4602 78.7845 26.0958 106.865 17.6617C134.946 9.22761 108.254 11.609 108.254 11.609L77.7922 23.3175L66.0837 35.0261L60.924 44.3532L71.7395 43.4602Z" fill="#DCD9D8"/>
<path d="M57.6496 84.2419C57.6496 84.2419 47.8264 51.3985 85.3333 46.7349L83.9442 41.0791L58.1457 47.1318L50.6046 71.5411L52.4899 87.5163L57.6496 84.2419Z" fill="#DCD9D8"/>
<path d="M72.6326 127.801L78.7845 121.848C78.7845 121.848 81.5628 122.145 82.0589 125.42C82.555 128.694 83.9442 158.263 104.087 174.139C105.972 175.628 89.1039 171.758 89.1039 171.758L74.1209 148.341" fill="#F7E4CD"/>
<path d="M158.859 118.871C158.859 118.871 159.95 104.682 163.82 105.774C167.69 106.865 167.69 110.735 167.69 110.735C167.69 110.735 158.363 116.688 158.859 118.871Z" fill="#F7E4CD"/>
<path d="M197.755 66.877C197.755 66.877 190.016 68.4646 189.321 75.3111C188.626 82.1576 197.755 76.7002 199.144 76.2041" fill="#F7E4CD"/>
<path d="M141.098 67.374C141.098 67.374 130.778 68.7632 130.778 75.312C130.778 81.8608 142.487 81.3647 145.761 78.5864" fill="#F7E4CD"/>
<path d="M77.3953 97.836C77.3953 97.836 59.6341 87.0205 57.7488 97.3399C55.8636 107.659 51.6961 115.101 60.5271 125.917L54.4744 124.031L48.8186 109.545L46.9333 95.4546L57.7488 84.2422L69.9535 85.1352L76.9985 90.791L77.3953 97.836Z" fill="#F7E4CD"/>
<path d="M85.8295 68.2663C85.8295 68.2663 93.7674 26.9888 134.053 19.0508C167.194 12.502 184.657 20.4399 191.206 27.981C191.206 27.981 161.637 -7.14456 133.557 3.57172C105.476 14.3872 84.8372 34.0337 85.3333 46.6353C86.1271 68.2663 85.8295 68.2663 85.8295 68.2663Z" fill="#F7E4CD"/>
<path d="M194.481 32.6444C194.481 32.6444 180.887 32.1483 180.391 44.3529C180.391 44.3529 180.391 46.2382 181.284 48.1235C181.284 48.1235 192.099 35.9188 198.648 42.4677" fill="#F7E4CD"/>
<path d="M135.045 49.4138C135.045 49.4138 132.664 30.7596 116.788 41.5751C106.468 48.62 107.46 58.4433 109.247 60.3285C111.132 62.2138 110.636 65.9844 112.025 63.4045C113.414 60.8247 113.017 52.3906 118.177 50.0092C123.237 47.6278 131.771 45.0479 135.045 49.4138Z" fill="#F7E4CD"/>
<path d="M90.9892 176.024L46.9333 195.671C46.9333 195.671 65.1907 268.303 55.8636 290.828L49.3147 288.446L48.8186 260.762L36.614 208.372L31.4543 193.885L77.3953 162.927L90.9892 176.024Z" fill="#49728B"/>
<path d="M95.4543 216.211L101.705 223.851V251.932H94.2636C94.2636 251.932 93.3705 232.285 93.3705 229.904C93.3705 227.523 94.2636 219.088 94.2636 219.088" fill="#49728B"/>
<path d="M95.6527 256.198L74.5178 257.091L80.5705 261.358L95.5535 263.739" fill="#49728B"/>
<path d="M167.789 251.535L185.153 251.039L189.42 294.103L171.659 296.484L167.789 251.535Z" fill="#335061"/>
<path d="M172.453 251.535L198.648 250.145C198.648 250.145 209.464 222.958 209.464 221.569C209.464 220.179 218.791 182.176 218.791 182.176L197.656 160.148L193.389 156.378L182.177 167.59V211.15L172.453 251.535Z" fill="#335061"/>
<path d="M184.161 248.261L167.789 251.535L170.171 264.633C176.223 267.411 186.543 259.969 186.543 259.969" fill="#49728B"/>
<path d="M184.657 166.202L217.501 190.611L218.394 179.398L193.588 156.478L184.657 166.202Z" fill="#49728B"/>
<path d="M111.926 343.814L102.202 304.422L97.3395 275.349L96.5457 253.817L140.502 251.436H167.789L165.309 300.651L169.575 338.654L169.079 345.699L133.457 348.477L111.926 343.814Z" fill="white"/>
<path d="M161.736 251.039C161.736 251.039 159.355 299.758 166.4 334.487C166.4 334.487 152.31 343.417 131.771 345.699L171.163 344.31L175.826 341.532L170.171 264.732L168.682 248.261" fill="#DCD9D8"/>
<path d="M190.115 290.431L208.372 285.271L243.002 283.386L248.161 267.411L238.834 239.727L228.019 238.338L213.036 243.001L198.747 250.046L191.107 248.657L185.153 251.039" fill="white"/>
<path d="M189.817 281.005C189.817 281.005 202.022 275.349 203.907 275.845L198.747 250.046L204.8 247.665C204.8 247.665 209.067 272.074 209.067 274.853C209.067 274.853 235.262 276.242 237.643 276.242C237.643 276.242 243.299 265.426 241.91 254.214L247.07 269.197L247.566 277.631L240.025 288.843L231.591 290.729L217.501 290.232L212.837 284.18L196.465 286.561L191.305 288.446" fill="#DCD9D8"/>
<path d="M171.361 247.764L161.042 221.569L150.226 206.09C150.226 206.09 152.608 199.541 155.882 199.541H166.698L177.017 203.312L176.124 220.676L171.361 247.764Z" fill="white"/>
<path d="M173.445 238.834C173.445 238.834 160.347 213.531 160.347 209.761C160.347 209.761 162.729 204.105 166.003 205.494C169.278 206.883 176.322 210.654 176.322 210.654V201.724L160.347 198.449L149.532 199.838L167.789 243.1L171.56 243.596" fill="#DCD9D8"/>
<path d="M116.093 177.017L103.095 175.628L90.8899 171.857V176.124L96.8434 182.673L115.597 191.107" fill="white"/>
<path d="M95.1566 178.406C95.1566 178.406 109.643 184.459 114.406 183.07L114.902 188.726L101.805 185.947L93.8667 180.292L95.1566 178.406Z" fill="#DCD9D8"/>
<path d="M190.115 201.129C182.177 200.93 174.933 199.938 168.682 198.152C169.079 195.572 168.285 193.091 168.98 191.206C170.766 189.916 173.643 189.916 176.322 189.619C174.04 188.527 170.766 188.031 168.186 188.726C168.087 186.94 167.293 185.848 166.797 184.459C171.262 182.871 181.78 172.453 187.733 175.826C190.611 177.513 191.802 186.84 192 191.504C192.198 195.274 191.603 199.045 190.115 201.129Z" fill="#D33833"/>
<path d="M190.115 201.129C182.177 200.93 174.933 199.938 168.682 198.152C169.079 195.572 168.285 193.091 168.98 191.206C170.766 189.916 173.643 189.916 176.322 189.619C174.04 188.527 170.766 188.031 168.186 188.726C168.087 186.94 167.293 185.848 166.797 184.459C171.262 182.871 181.78 172.453 187.733 175.826C190.611 177.513 191.802 186.84 192 191.504C192.198 195.274 191.603 199.045 190.115 201.129Z" fill="black" stroke="#D33833" stroke-width="2"/>
<path d="M152.112 188.13C152.112 188.725 152.112 189.321 152.012 189.916C149.532 191.504 145.563 191.504 142.785 192.893C146.753 193.091 149.929 194.084 152.707 195.373C152.608 196.862 152.608 198.449 152.509 199.938C147.944 203.014 143.777 207.677 138.419 210.654C135.839 212.043 127.008 215.615 124.329 214.921C122.84 214.524 122.642 212.639 122.047 210.853C120.757 207.082 117.78 200.93 117.482 195.175C117.184 187.932 116.391 175.727 124.229 177.215C130.58 178.406 137.922 181.284 142.785 183.963C145.86 185.749 147.547 187.733 152.112 188.13Z" fill="#D33833"/>
<path d="M152.112 188.13C152.112 188.725 152.112 189.321 152.012 189.916C149.532 191.504 145.563 191.504 142.785 192.893C146.753 193.091 149.929 194.084 152.707 195.373C152.608 196.862 152.608 198.449 152.509 199.938C147.944 203.014 143.777 207.677 138.419 210.654C135.839 212.043 127.008 215.615 124.329 214.921C122.84 214.524 122.642 212.639 122.047 210.853C120.757 207.082 117.78 200.93 117.482 195.175C117.184 187.932 116.391 175.727 124.229 177.215C130.58 178.406 137.922 181.284 142.785 183.963C145.86 185.749 147.547 187.733 152.112 188.13Z" fill="black" stroke="#D33833" stroke-width="2"/>
<path d="M156.577 196.763C155.882 192.794 155.088 191.702 155.386 188.23C166.003 181.185 167.888 200.335 156.577 196.763Z" fill="#D33833"/>
<path d="M156.577 196.763C155.882 192.794 155.088 191.702 155.386 188.23C166.003 181.185 167.888 200.335 156.577 196.763Z" fill="black" stroke="#D33833" stroke-width="2"/>
<path d="M171.857 199.938C171.857 199.938 168.583 195.274 170.964 193.885C173.346 192.496 175.628 193.885 177.017 191.504C178.406 189.122 177.017 187.733 177.513 184.955C178.009 182.176 180.291 181.68 182.673 181.184C185.054 180.688 191.603 179.795 192.496 182.077L189.718 173.643L184.062 171.758L166.301 182.077L165.408 187.237V197.556" fill="#EF3D3A"/>
<path d="M122.642 215.417C122.047 208.074 121.451 200.831 120.856 193.488C119.864 182.574 123.436 184.459 132.961 184.459C134.45 184.459 141.891 186.146 142.388 187.237C144.967 192.496 138.121 191.305 145.364 195.274C151.417 198.549 162.233 193.29 159.752 185.848C158.363 184.161 152.608 185.352 150.524 184.26C146.853 182.375 143.181 180.49 139.51 178.605C134.847 176.223 124.13 172.651 119.169 176.025C106.567 184.558 119.963 205.991 124.428 214.921" fill="#EF3D3A"/>
<path d="M135.045 49.4137C122.245 46.437 115.895 54.7718 112.025 63.4044C108.552 62.6106 109.941 57.8478 110.834 55.4664C113.116 49.2153 122.344 40.7811 129.885 41.9718C133.06 42.3687 137.426 45.3455 135.045 49.4137Z" fill="#231F20"/>
<path d="M197.259 63.9004H197.854C200.732 69.8539 203.212 76.2043 206.884 81.5624C204.403 87.3174 188.428 92.2787 188.626 82.1578C192.099 80.6694 198.053 81.8601 201.129 79.8756C199.343 75.0136 196.862 70.8461 197.259 63.9004Z" fill="#231F20"/>
<path d="M141.495 64.0996C144.273 69.1601 145.166 74.419 149.036 78.1895C150.822 79.8764 154.195 81.9601 152.509 86.7229C152.112 87.8143 149.234 90.295 147.547 90.7911C141.495 92.5771 127.305 91.188 132.068 83.5477C137.129 83.7461 143.876 86.8221 147.647 83.1508C144.769 78.5864 139.609 69.4577 141.495 64.0996Z" fill="#231F20"/>
<path d="M194.977 115.101C185.848 120.955 175.628 127.405 160.546 125.916C157.371 123.138 156.081 116.887 159.256 112.819C160.843 115.597 159.851 120.757 164.416 121.55C172.949 123.039 182.871 116.292 189.023 114.009C192.794 107.56 188.726 105.278 185.253 101.11C178.208 92.676 168.881 82.1582 169.178 69.5567C172.056 67.4729 172.254 72.7319 172.651 73.6249C176.322 82.1582 185.55 93.1722 192.198 100.515C193.885 102.301 196.564 104.087 196.862 105.278C197.755 108.651 194.58 112.819 194.977 115.101Z" fill="#231F20"/>
<path d="M74.1209 108.948C71.2434 107.262 70.5488 100.117 67.1752 99.9189C62.3132 99.6212 63.2062 109.246 63.2062 114.902C59.9318 111.925 59.3364 102.598 61.7178 97.8352C58.9395 96.446 57.7488 99.3235 56.1612 100.316C58.245 85.9282 77.2961 93.6677 74.1209 108.948Z" fill="#231F20"/>
<path d="M200.732 121.153C196.465 129.29 190.412 138.22 177.91 138.518C177.612 135.938 177.414 131.87 177.91 130.282C187.535 129.29 193.488 124.428 200.732 121.153Z" fill="#231F20"/>
<path d="M140.8 126.412C148.738 130.58 163.423 131.076 174.338 130.778C174.933 133.159 174.933 136.136 174.933 139.014C160.943 139.609 144.471 136.136 140.8 126.412Z" fill="#231F20"/>
<path d="M139.312 134.151C144.868 148.043 163.82 146.455 179.795 146.058C179.101 147.844 177.612 150.027 175.628 150.722C170.468 152.806 156.378 154.393 149.234 150.623C144.769 148.241 141.792 142.784 139.312 139.609C138.22 138.12 132.267 134.251 139.312 134.151Z" fill="#231F20"/>
<path d="M194.282 210.654C187.833 221.768 181.581 233.178 173.941 242.902C177.116 233.476 178.505 217.6 179.002 205.495C185.749 202.319 191.504 206.189 194.282 210.654Z" fill="#81B0C4"/>
<path d="M229.11 250.543C221.867 252.031 216.806 259.076 209.662 258.58C213.631 253.123 220.378 250.741 229.11 250.543Z" fill="#231F20"/>
<path d="M232.285 261.854C226.332 262.449 219.386 263.441 213.433 262.945C216.31 258.579 227.225 260.167 232.285 261.854Z" fill="#231F20"/>
<path d="M234.369 271.678C227.721 271.777 219.485 271.678 213.135 271.181C216.905 267.113 230.102 269.693 234.369 271.678Z" fill="#231F20"/>
<path d="M181.78 298.468C182.772 306.803 186.047 315.237 185.65 324.366C181.978 325.557 179.895 326.648 174.933 326.648C174.636 318.909 173.544 307.002 173.842 299.56C176.223 299.758 179.795 297.873 181.78 298.468Z" fill="#DCD9D8"/>
<path d="M171.064 175.43C167.69 177.613 164.912 180.292 161.637 182.673C154.493 183.07 150.623 182.177 145.464 178.109C145.563 177.811 146.059 177.91 146.059 177.513C153.699 180.887 163.423 176.124 171.064 175.43Z" fill="#F0D6B7"/>
<path d="M131.175 227.324C133.259 218.294 141.495 213.532 148.936 208.57C156.577 218.294 161.24 230.797 166.4 242.902C154.195 239.231 141.792 233.377 131.175 227.324Z" fill="#81B0C4"/>
<path d="M173.842 299.659C173.544 307.101 174.536 318.908 174.933 326.747C179.895 326.747 181.978 325.656 185.65 324.465C186.047 315.336 182.772 306.902 181.78 298.567C179.795 297.873 176.223 299.758 173.842 299.659ZM97.2403 257.587C100.515 287.454 105.178 312.459 113.811 338.952C132.961 344.806 155.981 345.302 172.949 340.043C169.873 325.16 171.163 307.001 169.377 291.026C167.988 279.02 168.682 267.014 166.797 254.809C146.257 250.543 117.284 253.817 97.2403 257.587ZM171.659 255.008C171.46 267.808 172.254 280.508 173.247 293.308C178.208 292.614 181.482 292.118 186.047 291.026C184.558 278.722 184.757 264.732 181.681 253.817C178.208 253.916 175.132 253.817 171.659 255.008ZM196.564 252.924C194.183 252.428 191.504 252.924 189.321 252.924C190.412 263.343 192.893 274.853 193.786 285.867C197.259 285.966 199.144 284.279 202.022 283.783C202.22 274.158 201.228 260.862 196.564 252.924ZM234.369 287.454C241.712 285.668 246.276 276.738 244.192 267.51C242.803 261.358 240.422 249.65 237.743 245.681C235.857 242.803 230.598 238.933 226.332 241.612C219.485 245.978 207.479 247.268 202.518 252.527C204.998 260.862 205.792 272.174 206.785 282.691C215.318 283.188 225.736 280.31 232.881 283.386C227.919 284.974 221.569 284.974 217.302 287.355C220.874 289.042 229.011 288.744 234.369 287.454ZM166.301 242.902C161.141 230.797 156.478 218.294 148.837 208.57C141.395 213.532 133.259 218.294 131.076 227.324C141.792 233.377 154.195 239.231 166.301 242.902ZM179.002 205.494C178.505 217.6 177.116 233.476 173.941 242.902C181.581 233.079 187.833 221.767 194.282 210.654C191.504 206.189 185.749 202.319 179.002 205.494ZM164.614 200.434C161.736 200.136 159.256 203.808 155.485 202.22C154.592 203.212 153.798 204.205 152.905 205.197C161.24 215.318 165.11 229.606 171.56 241.414C175.033 230.003 174.636 217.6 175.429 205.197C170.667 205.395 167.988 200.732 164.614 200.434ZM155.386 188.229C155.088 191.702 155.882 192.794 156.577 196.763C167.888 200.335 166.003 181.184 155.386 188.229ZM142.785 184.062C137.922 181.383 130.58 178.505 124.229 177.315C116.391 175.826 117.184 188.031 117.482 195.274C117.78 201.029 120.757 207.082 122.047 210.952C122.642 212.738 122.84 214.623 124.329 215.02C127.008 215.615 135.938 212.143 138.419 210.753C143.777 207.876 147.944 203.212 152.509 200.037C152.608 198.549 152.608 196.961 152.707 195.473C149.929 194.084 146.853 193.191 142.785 192.992C145.464 191.603 149.532 191.603 152.012 190.015C152.012 189.42 152.012 188.825 152.112 188.229C147.547 187.733 145.86 185.749 142.785 184.062ZM96.1488 175.628C92.0806 179.795 107.56 185.352 112.422 185.65C112.422 183.07 113.91 180.589 113.612 178.704C107.758 177.712 100.118 178.406 96.1488 175.628ZM146.158 177.513C146.158 177.91 145.662 177.811 145.563 178.108C150.822 182.177 154.691 183.07 161.736 182.673C164.912 180.391 167.789 177.612 171.163 175.429C163.423 176.124 153.699 180.887 146.158 177.513ZM192 191.405C191.802 186.84 190.611 177.414 187.733 175.727C181.78 172.254 171.262 182.772 166.797 184.36C167.293 185.749 168.087 186.84 168.186 188.626C170.865 187.932 174.04 188.428 176.322 189.519C173.643 189.817 170.766 189.817 168.98 191.107C168.384 192.992 169.178 195.473 168.682 198.053C174.933 199.839 182.177 200.732 190.115 201.029C191.603 199.045 192.198 195.274 192 191.405ZM89.3023 179.597C88.0124 178.704 79.3798 167.491 78.1891 167.988C62.6109 174.139 48.0248 184.757 35.0264 194.877C47.4295 221.569 52.4899 254.214 53.3829 285.668C67.5721 292.316 80.0744 301.941 99.4233 302.933C97.1411 287.156 95.1566 272.967 93.8667 258.084C89.0047 256 82.0589 258.183 77.4946 257.488C77.4946 252.031 84.4403 255.107 85.0357 251.436C85.4326 248.657 81.1659 248.459 82.555 244.093C86.1271 245.383 88.0124 248.26 91.7829 249.352C95.2558 241.811 91.7829 228.415 92.2791 222.065C92.3783 220.874 92.8744 215.516 95.5535 216.409C97.9349 217.203 95.4543 230.797 95.6527 236.75C95.8512 242.307 94.9581 247.566 97.2403 251.039C115.895 248.459 134.847 246.871 155.088 246.276C150.623 244.391 145.364 242.605 139.609 239.33C136.434 237.544 126.611 233.873 125.718 230.896C124.229 226.133 129.488 223.653 130.381 219.584C120.955 224.744 119.169 214.623 116.887 207.578C114.902 201.129 113.712 196.267 113.216 192.595C104.98 188.428 96.2481 184.558 89.3023 179.597ZM183.764 169.277C196.763 163.026 199.144 192.794 193.984 202.419C194.778 205.296 197.457 206.387 198.549 208.967C191.305 221.966 183.268 234.071 175.826 246.871C181.284 243.398 189.222 246.276 195.671 243.696C198.053 242.803 199.74 237.346 201.526 232.98C206.487 221.073 211.647 205.991 213.929 194.679C214.425 192.099 215.913 186.443 215.516 184.161C214.921 179.994 209.364 176.918 206.487 174.437C201.228 169.674 197.953 165.606 192.397 161.141C190.313 164.415 185.55 166.598 183.764 169.277ZM59.6341 54.0774C53.4822 60.9239 54.7721 73.6247 55.4667 82.7534C66.6791 75.7084 81.4636 83.3487 81.3643 95.2557C86.7225 95.1565 83.3488 88.6077 82.3566 84.341C79.1814 70.5487 87.7147 55.665 82.7535 43.0635C73.1287 43.8573 65.2899 47.727 59.6341 54.0774ZM103.888 14.4867C89.8977 18.4557 71.938 28.6759 66.1829 41.2774C70.6481 40.5829 73.724 38.3999 78.0899 38.1022C79.7767 38.003 81.9597 38.7968 83.845 38.3007C87.6155 37.3084 90.8899 28.7751 93.7674 25.5999C96.5457 22.5239 99.9194 21.1348 102.202 18.3565C103.69 17.6619 105.873 17.6619 105.972 15.479C105.377 14.7844 104.682 14.2883 103.888 14.4867ZM176.819 18.2573C162.233 10.0216 137.625 3.86967 122.146 11.6092C109.643 17.8604 92.7752 28.1798 87.0202 41.1782C92.3783 53.7798 85.4326 65.2898 84.9364 78.0898C84.738 84.9363 88.1116 90.7906 88.4093 98.2325C86.524 101.308 80.9674 101.606 77.0977 101.408C75.8078 94.8588 73.5256 87.5162 66.7783 86.7224C57.2527 85.6309 50.2077 93.5689 49.8109 101.805C49.3147 111.529 57.2527 127.603 68.5643 126.512C72.9302 126.115 74.0217 121.749 78.7845 121.749C81.3643 126.908 74.8155 128.496 74.1209 132.167C73.9225 133.16 74.6171 136.831 75.1132 138.617C77.1969 147.051 81.7612 158.065 86.2264 164.515C91.9814 172.75 103.194 173.941 115.299 174.735C117.482 170.071 125.42 170.468 130.58 171.659C124.329 169.178 118.574 163.225 113.811 157.966C108.353 151.913 102.797 145.463 102.499 137.525C112.918 151.913 121.451 164.515 140.304 170.865C154.592 175.628 171.262 168.682 182.276 160.943C186.84 157.767 189.519 152.608 192.794 148.043C204.899 130.58 210.555 105.774 209.364 81.6619C208.868 71.7394 208.868 61.817 205.495 55.1689C202.022 48.2232 190.214 41.8728 183.268 48.2232C181.978 41.3766 189.023 37.2092 197.259 39.6898C191.405 32.0495 185.253 23.0201 176.819 18.2573ZM204.006 242.605C215.417 236.949 236.651 227.423 243.696 242.605C246.375 248.26 249.451 257.687 250.741 263.541C252.626 271.677 248.657 288.943 240.223 291.622C232.781 294.003 224.149 293.904 215.219 292.118C214.127 291.225 213.036 289.736 212.143 288.149C205.792 287.95 199.74 288.446 194.778 291.125C195.274 295.888 192.099 296.583 189.023 297.575C186.84 306.406 193.488 317.916 191.901 325.854C190.809 331.609 183.764 332.502 178.605 333.494C178.406 336.67 178.803 339.349 179.2 342.028C178.009 346.394 172.75 348.874 167.69 349.47C151.119 351.454 126.016 352.347 110.14 346.592C105.674 335.677 102.202 322.481 98.5302 310.077C83.0512 311.764 70.4496 303.429 58.6419 297.873C54.5736 295.987 48.9178 294.896 47.3302 291.622C45.8419 288.446 46.4372 282.394 46.0403 276.738C45.1473 262.152 44.2543 248.062 40.4837 233.178C38.7969 226.431 35.7209 220.577 33.6372 214.127C31.6527 208.174 28.2791 200.732 27.386 194.778C26.0961 185.947 34.431 185.451 39.6899 181.581C47.9256 175.628 54.3752 172.353 63.3054 166.995C65.9845 165.408 73.9225 161.439 74.8155 159.553C76.6016 155.882 71.7395 150.722 70.4496 147.845C68.3659 143.281 67.2744 139.411 66.9767 134.946C59.5349 133.755 53.7798 129.29 50.4062 124.329C44.7504 115.994 40.7814 100.614 45.7426 89.0046C46.1395 88.1115 48.0248 86.2263 48.3225 84.8371C48.9178 82.0588 47.231 78.3875 47.1318 75.4108C46.6357 60.2294 49.7116 47.1317 59.9318 42.5673C64.0992 25.9968 78.9829 20.5394 92.9736 12.3038C98.2326 9.22781 103.988 7.24331 109.941 5.06037C131.274 -2.77839 164.118 -1.29002 181.879 12.1053C189.42 17.7611 201.426 29.7673 205.693 38.4991C217.104 61.4201 216.211 99.8201 208.273 127.801C207.181 131.572 205.693 137.029 203.51 141.594C202.022 144.769 197.358 151.02 197.854 153.798C198.45 156.676 208.571 164.316 210.753 166.4C214.623 170.17 222.065 175.132 222.66 179.894C223.355 184.955 220.478 191.901 218.989 196.763C214.226 213.036 209.464 228.019 204.006 242.605Z" fill="#231F20"/>
<path d="M128.099 129.885C128.695 129.091 132.068 127.801 136.831 130.083C136.831 130.083 131.175 130.976 131.671 140.403L129.29 139.907C129.389 140.006 126.909 131.473 128.099 129.885Z" fill="#F7E4CD"/>
<path d="M169.178 210.456C169.178 211.845 167.988 213.036 166.598 213.036C165.209 213.036 164.019 211.845 164.019 210.456C164.019 209.067 165.209 207.876 166.598 207.876C168.087 207.876 169.178 209.067 169.178 210.456Z" fill="#1D1919"/>
<path d="M171.758 222.462C171.758 223.851 170.567 225.042 169.178 225.042C167.789 225.042 166.598 223.851 166.598 222.462C166.598 221.073 167.789 219.882 169.178 219.882C170.667 219.882 171.758 220.973 171.758 222.462Z" fill="#1D1919"/>
<path d="M36.614 374.276C35.8202 374.375 35.1256 374.474 34.5302 374.573C33.9349 374.672 33.3395 374.772 32.5457 374.97C31.6527 375.169 31.1566 375.565 30.9581 376.161C30.7597 376.756 30.5612 377.352 30.5612 378.145V402.356C30.5612 404.539 30.0651 406.623 29.1721 408.508C28.2791 410.393 27.0884 411.882 25.5008 413.172C23.9132 414.362 22.1271 415.355 20.1426 415.95C18.1581 416.545 16.0744 416.942 13.8915 416.942C10.0217 416.942 6.94574 416.049 4.56434 414.164C2.18295 412.279 0.992249 409.798 0.992249 406.524C0.992249 404.638 1.48837 403.051 2.57985 401.761C3.67132 400.471 5.15969 399.876 7.04496 399.876C8.83101 399.876 10.2202 400.372 11.3116 401.463C12.4031 402.555 12.8992 403.845 12.8992 405.333C12.8992 406.623 12.4031 407.913 11.5101 409.004C10.6171 410.096 9.52558 411.187 8.33488 412.08V412.477C8.53333 412.874 8.93023 413.271 9.52558 413.569C10.1209 413.866 10.8155 413.965 11.4109 413.965C13.8915 413.965 15.876 413.072 17.2651 411.286C18.6543 409.5 19.3488 406.821 19.3488 403.249V378.443C19.3488 377.748 19.2496 377.054 19.0512 376.558C18.8527 376.062 18.2574 375.665 17.3643 375.268C16.769 374.97 15.9752 374.772 15.0822 374.573C14.1891 374.375 13.4946 374.276 12.8992 374.176V371.795H36.3163V374.276H36.614Z" fill="#231F20"/>
<path d="M73.3271 408.409C72.6326 409.599 71.7395 410.691 70.7473 411.782C69.755 412.874 68.5643 413.667 67.2744 414.461C65.8853 415.255 64.4961 415.85 63.107 416.247C61.7178 416.644 60.031 416.843 58.245 416.843C55.169 416.843 52.5891 416.446 50.307 415.553C48.124 414.66 46.2388 413.568 44.8496 412.08C43.3612 410.591 42.369 408.905 41.5752 406.92C40.8806 404.936 40.4837 402.753 40.4837 400.471C40.4837 398.387 40.8806 396.303 41.6744 394.418C42.4682 392.533 43.5597 390.746 44.9488 389.258C46.338 387.77 48.124 386.579 50.307 385.686C52.4899 384.793 54.8713 384.297 57.4512 384.297C60.3287 384.297 62.7101 384.694 64.5953 385.388C66.4806 386.083 67.969 387.075 69.1597 388.266C70.3504 389.457 71.1442 390.846 71.7395 392.433C72.2357 394.021 72.5333 395.708 72.5333 397.494V399.478H51.5969C51.5969 403.745 52.3907 406.92 54.0775 409.103C55.6651 411.286 58.3442 412.377 61.8171 412.377C63.8015 412.377 65.4884 411.881 67.076 410.79C68.6636 409.698 69.9535 408.409 71.045 406.722L73.3271 408.409ZM61.5194 396.601C61.5194 395.41 61.4202 394.12 61.3209 392.83C61.2217 391.54 61.0233 390.449 60.6264 389.655C60.2295 388.663 59.8326 387.968 59.138 387.472C58.5426 386.976 57.7488 386.777 56.8558 386.777C55.2682 386.777 53.9783 387.571 53.0853 389.159C52.093 390.746 51.5969 393.326 51.4977 396.799L61.5194 396.601Z" fill="#231F20"/>
<path d="M117.085 415.751H98.431V413.469C98.8279 413.469 99.324 413.37 99.8202 413.271C100.416 413.172 100.812 413.072 101.11 412.973C101.507 412.775 101.805 412.378 102.003 411.981C102.202 411.584 102.301 410.889 102.301 410.096V395.609C102.301 393.525 101.904 391.937 101.11 390.846C100.316 389.754 99.2248 389.258 97.6372 389.258C96.8434 389.258 96.0496 389.358 95.355 389.655C94.6605 389.854 93.9659 390.251 93.2713 390.747C92.676 391.144 92.1798 391.54 91.7829 392.037C91.386 392.434 91.0884 392.83 90.8899 393.227V409.798C90.8899 410.492 90.9892 411.088 91.1876 411.584C91.386 412.08 91.7829 412.477 92.1798 412.675C92.4775 412.874 92.8744 413.072 93.3705 413.172C93.8667 413.271 94.3628 413.37 94.8589 413.469V415.751H76.0062V413.469C76.5023 413.469 76.9984 413.37 77.5938 413.271C78.0899 413.172 78.586 413.072 78.9829 412.973C79.6775 412.775 80.0744 412.378 80.3721 411.882C80.5705 411.385 80.769 410.79 80.769 409.996V391.937C80.769 391.342 80.5705 390.647 80.2729 390.052C79.9752 389.457 79.4791 388.961 78.9829 388.564C78.586 388.365 78.1891 388.068 77.5938 387.968C76.9984 387.77 76.4031 387.671 75.7085 387.671V385.389L90.493 384.595L90.9892 385.091V389.556H91.0884C91.6837 389.06 92.3783 388.465 93.1721 387.671C93.9659 386.976 94.7597 386.381 95.4543 385.885C96.2481 385.389 97.2403 384.992 98.431 384.595C99.6217 384.198 101.011 384.099 102.4 384.099C105.774 384.099 108.254 385.091 109.941 386.976C111.628 388.861 112.422 391.441 112.422 394.616V409.798C112.422 410.592 112.521 411.187 112.719 411.584C112.918 412.08 113.414 412.378 114.009 412.675C114.307 412.775 114.704 412.973 115.2 413.072C115.696 413.172 116.192 413.271 116.887 413.37V415.751H117.085Z" fill="#231F20"/>
<path d="M159.752 415.751H145.166C143.38 412.576 141.693 409.897 140.205 407.714C138.716 405.531 137.327 403.447 136.037 401.661L134.251 403.249V409.996C134.251 410.691 134.35 411.385 134.549 411.782C134.747 412.278 135.144 412.576 135.839 412.874C136.236 413.072 136.633 413.172 137.129 413.271C137.625 413.37 138.121 413.469 138.617 413.469V415.751H119.367V413.469C119.864 413.469 120.36 413.37 120.955 413.271C121.451 413.172 121.947 413.072 122.344 412.973C123.039 412.775 123.436 412.378 123.733 411.882C123.932 411.385 124.13 410.79 124.13 409.996V375.466C124.13 374.772 123.932 374.077 123.634 373.382C123.336 372.688 122.94 372.092 122.344 371.696C121.947 371.497 121.352 371.199 120.558 371.1C119.764 370.902 119.07 370.803 118.375 370.803V368.52L133.755 367.727L134.251 368.223V400.173C135.74 398.784 137.526 397.196 139.411 395.41C141.296 393.624 142.884 392.136 143.975 390.945C144.67 390.251 145.067 389.754 145.067 389.358C145.166 388.961 145.166 388.762 145.166 388.663C145.166 388.266 144.868 387.968 144.174 387.77C143.479 387.572 142.586 387.274 141.197 387.075V384.892H156.874V387.075C154.791 387.671 153.203 388.167 152.112 388.663C151.02 389.159 149.829 389.854 148.54 390.647C147.647 391.243 146.853 391.838 146.059 392.434C145.265 393.029 144.372 393.823 143.281 394.716C145.265 397.692 147.15 400.372 148.837 402.852C150.524 405.333 152.31 408.012 154.195 410.79C154.791 411.782 155.585 412.378 156.577 412.775C157.569 413.072 158.462 413.271 159.454 413.37V415.751H159.752Z" fill="#231F20"/>
<path d="M179.597 415.752H160.05V413.47C160.546 413.47 161.141 413.37 161.637 413.271C162.133 413.172 162.629 413.073 162.927 412.973C163.622 412.775 164.019 412.378 164.316 411.882C164.614 411.386 164.713 410.791 164.713 409.997V391.938C164.713 391.243 164.515 390.549 164.217 390.053C163.919 389.457 163.522 389.06 163.026 388.763C162.629 388.564 162.133 388.266 161.34 388.068C160.546 387.87 159.851 387.671 159.256 387.671V385.389L174.437 384.595L174.933 385.091V409.699C174.933 410.394 175.132 410.989 175.429 411.584C175.727 412.08 176.223 412.477 176.719 412.676C177.116 412.874 177.612 413.073 178.109 413.172C178.605 413.271 179.101 413.37 179.696 413.47V415.752H179.597ZM175.132 373.581C175.132 375.169 174.536 376.459 173.346 377.55C172.155 378.642 170.667 379.237 169.079 379.237C167.392 379.237 166.003 378.642 164.713 377.55C163.522 376.459 162.927 375.07 162.927 373.581C162.927 371.994 163.522 370.704 164.713 369.513C165.904 368.422 167.392 367.826 169.079 367.826C170.766 367.826 172.155 368.422 173.346 369.513C174.536 370.604 175.132 371.994 175.132 373.581Z" fill="#231F20"/>
<path d="M223.355 415.751H204.701V413.469C205.098 413.469 205.594 413.37 206.09 413.271C206.685 413.172 207.082 413.072 207.38 412.973C207.777 412.775 208.074 412.378 208.273 411.981C208.471 411.584 208.571 410.889 208.571 410.096V395.609C208.571 393.525 208.174 391.937 207.38 390.846C206.586 389.754 205.495 389.258 203.907 389.258C203.113 389.258 202.319 389.358 201.625 389.655C200.93 389.953 200.236 390.251 199.541 390.747C198.946 391.144 198.45 391.54 198.053 392.037C197.656 392.434 197.358 392.83 197.16 393.227V409.798C197.16 410.492 197.259 411.088 197.457 411.584C197.656 412.08 198.053 412.477 198.45 412.675C198.747 412.874 199.144 413.072 199.64 413.172C200.136 413.271 200.633 413.37 201.129 413.469V415.751H182.276V413.469C182.772 413.469 183.268 413.37 183.864 413.271C184.36 413.172 184.856 413.072 185.253 412.973C185.947 412.775 186.344 412.378 186.642 411.882C186.84 411.385 187.039 410.79 187.039 409.996V391.937C187.039 391.342 186.84 390.647 186.543 390.052C186.245 389.457 185.749 388.961 185.253 388.564C184.856 388.365 184.459 388.068 183.864 387.968C183.268 387.77 182.673 387.671 181.978 387.671V385.389L196.763 384.595L197.259 385.091V389.556H197.358C197.953 389.06 198.648 388.465 199.442 387.671C200.236 386.976 201.029 386.381 201.724 385.885C202.518 385.389 203.51 384.992 204.701 384.595C205.891 384.198 207.281 384.099 208.67 384.099C212.043 384.099 214.524 385.091 216.211 386.976C217.898 388.861 218.691 391.441 218.691 394.616V409.798C218.691 410.592 218.791 411.187 218.989 411.584C219.188 412.08 219.684 412.378 220.279 412.675C220.577 412.775 220.974 412.973 221.47 413.072C221.966 413.172 222.462 413.271 223.157 413.37V415.751H223.355Z" fill="#231F20"/>
<path d="M240.521 416.843C238.536 416.843 236.552 416.545 234.667 415.95C232.781 415.354 231.293 414.759 230.202 414.064L229.309 416.148H226.927L226.53 404.638H228.812C229.11 405.531 229.606 406.622 230.4 407.813C231.095 409.004 231.988 409.996 232.881 410.988C233.873 411.881 234.964 412.675 236.254 413.37C237.544 413.965 238.834 414.362 240.223 414.362C242.109 414.362 243.498 413.965 244.391 413.271C245.284 412.576 245.78 411.385 245.78 409.897C245.78 409.103 245.581 408.409 245.184 407.813C244.788 407.317 244.192 406.821 243.498 406.424C242.704 406.027 241.811 405.63 240.819 405.333C239.826 405.035 238.636 404.737 237.247 404.241C235.857 403.844 234.667 403.447 233.674 402.951C232.682 402.554 231.591 401.86 230.598 400.967C229.705 400.173 228.912 399.181 228.416 398.089C227.82 396.998 227.622 395.609 227.622 394.021C227.622 391.143 228.812 388.762 231.293 386.976C233.774 385.19 236.949 384.297 240.918 384.297C242.803 384.297 244.49 384.495 246.078 384.892C247.665 385.289 248.955 385.686 250.047 386.182L250.741 384.396H253.122L253.619 394.914H251.436C250.741 392.731 249.451 390.945 247.764 389.357C245.978 387.77 244.093 386.976 242.109 386.976C240.521 386.976 239.231 387.274 238.338 387.968C237.445 388.663 236.949 389.556 236.949 390.746C236.949 392.334 237.643 393.426 238.933 394.12C240.223 394.815 242.109 395.509 244.49 396.105C248.161 397.097 250.84 398.387 252.626 399.974C254.313 401.661 255.206 403.745 255.206 406.226C255.206 409.599 253.916 412.278 251.237 414.064C248.26 415.85 244.788 416.843 240.521 416.843Z" fill="#231F20"/>
</g>
<defs>
<clipPath id="clip0_2_15106">
<rect width="256" height="417" fill="white"/>
</clipPath>
</defs>
</svg>
