<svg width="256" height="249" viewBox="0 0 256 249" fill="none" xmlns="http://www.w3.org/2000/svg">
<g clip-path="url(#clip0_2_15022)">
<path d="M82.0851 244.934C76.1393 244.934 70.5238 242.292 66.7251 237.502L8.91867 165.657C5.11996 160.867 3.6335 154.756 5.11996 148.81L25.7651 59.1279C27.0864 53.1821 31.0503 48.3924 36.5006 45.7498L120.072 5.78076C122.715 4.45947 125.688 3.79883 128.661 3.79883C131.633 3.79883 134.606 4.45947 137.249 5.78076L220.821 45.5846C226.271 48.2272 230.235 53.0169 231.556 58.9627L252.201 148.645C253.523 154.591 252.201 160.702 248.403 165.492L190.596 237.337C186.797 241.961 181.182 244.769 175.236 244.769L82.0851 244.934Z" fill="#326DE6"/>
<path d="M128.495 7.92762C130.808 7.92762 133.12 8.4231 135.267 9.41407L218.839 49.2179C223.133 51.365 226.436 55.3289 227.427 59.9534L248.072 149.636C249.228 154.426 248.072 159.381 244.934 163.179L187.128 235.024C184.155 238.823 179.53 240.97 174.741 240.97H82.0851C77.2955 240.97 72.6709 238.823 69.698 235.024L11.8916 163.179C8.91869 159.381 7.76256 154.426 8.75353 149.636L29.3987 59.9534C30.5548 55.1637 33.6929 51.1999 37.9871 49.2179L121.559 9.24891C123.706 8.4231 126.183 7.92762 128.495 7.92762ZM128.495 0.165039C125.027 0.165039 121.559 0.990845 118.255 2.4773L34.6839 42.4463C28.0774 45.5844 23.4529 51.365 21.8013 58.467L1.15611 148.15C-0.495503 155.251 1.15611 162.519 5.78063 168.299L63.5871 240.144C68.0464 245.76 74.818 248.898 81.92 248.898H174.575C181.677 248.898 188.449 245.76 192.908 240.144L250.715 168.299C255.339 162.684 256.991 155.251 255.339 148.15L234.694 58.467C233.043 51.365 228.418 45.5844 221.812 42.4463L138.57 2.4773C135.432 0.990845 131.964 0.165039 128.495 0.165039Z" fill="white"/>
<path d="M212.232 142.534C212.067 142.534 212.067 142.534 212.232 142.534H212.067C211.902 142.534 211.737 142.534 211.737 142.369C211.406 142.369 211.076 142.204 210.746 142.204C209.59 142.039 208.599 141.874 207.608 141.874C207.112 141.874 206.617 141.874 205.956 141.708H205.791C202.323 141.378 199.515 141.048 196.872 140.222C195.716 139.726 195.386 139.066 195.055 138.405C195.055 138.24 194.89 138.24 194.89 138.075L192.743 137.414C193.734 129.817 193.404 121.889 191.587 114.126C189.77 106.364 186.632 99.0967 182.338 92.4903L183.99 91.0038V90.6735C183.99 89.8477 184.155 89.0219 184.816 88.1961C186.797 86.3793 189.275 84.8929 192.248 83.0761C192.743 82.7458 193.239 82.5806 193.734 82.2503C194.725 81.7548 195.551 81.2593 196.542 80.5987C196.707 80.4335 197.037 80.2683 197.368 79.938C197.533 79.7729 197.698 79.7729 197.698 79.6077C200.01 77.6258 200.506 74.3225 198.854 72.1754C198.028 71.0193 196.542 70.3587 195.055 70.3587C193.734 70.3587 192.578 70.8542 191.422 71.68C191.257 71.8451 191.257 71.8451 191.092 72.0103C190.761 72.1754 190.596 72.5058 190.266 72.6709C189.44 73.4967 188.779 74.1574 188.119 74.9832C187.788 75.3135 187.458 75.809 186.963 76.1393C184.65 78.6167 182.503 80.5987 180.356 82.0851C179.861 82.4154 179.365 82.5806 178.87 82.5806C178.539 82.5806 178.209 82.5806 177.879 82.4154H177.548L175.566 83.7367C173.419 81.4245 171.107 79.4425 168.795 77.4606C158.885 69.698 146.828 64.9083 134.276 63.7522L134.111 61.6051C133.946 61.44 133.946 61.44 133.781 61.2748C133.285 60.7793 132.625 60.2838 132.459 59.1277C132.294 56.4851 132.625 53.5122 132.955 50.209V50.0438C132.955 49.5484 133.12 48.8877 133.285 48.3922C133.45 47.4013 133.616 46.4103 133.781 45.2542V44.2632V43.7677C133.781 40.7948 131.468 38.3174 128.661 38.3174C127.339 38.3174 126.018 38.978 125.027 39.969C124.036 40.96 123.541 42.2813 123.541 43.7677V44.098V45.089C123.541 46.2451 123.706 47.2361 124.036 48.2271C124.201 48.7225 124.201 49.218 124.366 49.8787V50.0438C124.697 53.3471 125.192 56.32 124.862 58.9625C124.697 60.1187 124.036 60.6142 123.541 61.1096C123.376 61.2748 123.376 61.2748 123.21 61.44L123.045 63.5871C120.072 63.9174 117.099 64.2477 114.126 64.9083C101.409 67.7161 90.1781 74.1574 81.4245 83.4064L79.7729 82.2503H79.4426C79.1123 82.2503 78.782 82.4154 78.4516 82.4154C77.9562 82.4154 77.4607 82.2503 76.9652 81.92C74.8181 80.4335 72.671 78.2864 70.3587 75.809C70.0284 75.4787 69.6981 74.9832 69.2026 74.6529C68.542 73.8271 67.8813 73.1664 67.0555 72.3406C66.8903 72.1754 66.56 72.0103 66.2297 71.68C66.0645 71.5148 65.8994 71.5148 65.8994 71.3496C64.9084 70.5238 63.5871 70.0284 62.2658 70.0284C60.7794 70.0284 59.2929 70.689 58.4671 71.8451C56.8155 73.9922 57.311 77.2954 59.6232 79.2774C59.7884 79.2774 59.7884 79.4425 59.9536 79.4425C60.2839 79.6077 60.4491 79.938 60.7794 80.1032C61.7703 80.7638 62.5961 81.2593 63.5871 81.7548C64.0826 81.92 64.5781 82.2503 65.0736 82.5806C68.0465 84.3974 70.5239 85.8838 72.5058 87.7006C73.3316 88.5264 73.3316 89.3522 73.3316 90.178V90.5083L74.9832 91.9948C74.6529 92.4903 74.3226 92.8206 74.1574 93.3161C65.8994 106.364 62.7613 121.724 64.9084 136.919L62.7613 137.579C62.7613 137.744 62.5962 137.744 62.5962 137.91C62.2658 138.57 61.7703 139.231 60.7794 139.726C58.302 140.552 55.3291 140.883 51.8607 141.213H51.6955C51.2 141.213 50.5394 141.213 50.0439 141.378C49.0529 141.378 48.062 141.543 46.9058 141.708C46.5755 141.708 46.2452 141.874 45.9149 141.874C45.7497 141.874 45.5845 141.874 45.4194 142.039C42.4465 142.699 40.6297 145.507 41.1252 148.15C41.6207 150.462 43.7678 151.948 46.4103 151.948C46.9058 151.948 47.2362 151.948 47.7316 151.783C47.8968 151.783 48.062 151.783 48.062 151.618C48.3923 151.618 48.7226 151.453 49.0529 151.453C50.2091 151.123 51.0349 150.792 52.0258 150.297C52.5213 150.132 53.0168 149.801 53.5123 149.636H53.6774C56.8155 148.48 59.6232 147.489 62.2658 147.159H62.5962C63.5871 147.159 64.2478 147.654 64.7432 147.984C64.9084 147.984 64.9084 148.15 65.0736 148.15L67.3858 147.819C71.3497 160.041 78.9471 170.942 89.022 178.87C91.3342 180.686 93.6465 182.173 96.1239 183.659L95.1329 185.806C95.1329 185.972 95.2981 185.972 95.2981 186.137C95.6284 186.797 95.9587 187.623 95.6284 188.779C94.6374 191.257 93.151 193.734 91.3342 196.542V196.707C91.0039 197.203 90.6736 197.533 90.3432 198.028C89.6826 198.854 89.1871 199.68 88.5265 200.671C88.3613 200.836 88.1961 201.166 88.031 201.497C88.031 201.662 87.8658 201.827 87.8658 201.827C86.5445 204.635 87.5355 207.773 90.0129 208.929C90.6736 209.259 91.3342 209.424 91.9949 209.424C93.9768 209.424 95.9587 208.103 96.9497 206.286C96.9497 206.121 97.1149 205.956 97.1149 205.956C97.28 205.626 97.4452 205.295 97.6103 205.13C98.1058 203.974 98.271 203.148 98.6013 202.157C98.7665 201.662 98.9316 201.166 99.0968 200.671C100.253 197.368 101.079 194.725 102.565 192.413C103.226 191.422 104.052 191.257 104.712 190.926C104.877 190.926 104.877 190.926 105.043 190.761L106.199 188.614C113.466 191.422 121.394 192.908 129.321 192.908C134.111 192.908 139.066 192.413 143.69 191.257C146.663 190.596 149.471 189.77 152.279 188.779L153.27 190.596C153.435 190.596 153.435 190.596 153.6 190.761C154.426 190.926 155.086 191.257 155.747 192.248C157.068 194.56 158.059 197.368 159.216 200.506V200.671C159.381 201.166 159.546 201.662 159.711 202.157C160.041 203.148 160.206 204.139 160.702 205.13C160.867 205.461 161.032 205.626 161.197 205.956C161.197 206.121 161.363 206.286 161.363 206.286C162.354 208.268 164.336 209.424 166.317 209.424C166.978 209.424 167.639 209.259 168.299 208.929C169.456 208.268 170.446 207.277 170.777 205.956C171.107 204.635 171.107 203.148 170.446 201.827C170.446 201.662 170.281 201.662 170.281 201.497C170.116 201.166 169.951 200.836 169.786 200.671C169.29 199.68 168.63 198.854 167.969 198.028C167.639 197.533 167.308 197.203 166.978 196.707V196.542C165.161 193.734 163.51 191.257 162.684 188.779C162.354 187.623 162.684 186.963 162.849 186.137C162.849 185.972 163.014 185.972 163.014 185.806L162.188 183.824C170.942 178.704 178.374 171.437 183.99 162.519C186.963 157.894 189.275 152.774 190.926 147.654L192.908 147.984C193.074 147.984 193.074 147.819 193.239 147.819C193.899 147.489 194.395 146.994 195.386 146.994H195.716C198.359 147.324 201.166 148.315 204.305 149.471H204.47C204.965 149.636 205.461 149.966 205.956 150.132C206.947 150.627 207.773 150.957 208.929 151.288C209.259 151.288 209.59 151.453 209.92 151.453C210.085 151.453 210.25 151.453 210.415 151.618C210.911 151.783 211.241 151.783 211.737 151.783C214.214 151.783 216.361 150.132 217.022 147.984C217.022 146.003 215.205 143.36 212.232 142.534ZM135.763 134.441L128.496 137.91L121.228 134.441L119.412 126.679L124.366 120.403H132.459L137.414 126.679L135.763 134.441ZM178.87 117.264C180.191 122.88 180.521 128.495 180.026 133.946L154.756 126.679C152.444 126.018 151.123 123.706 151.618 121.394C151.783 120.733 152.114 120.072 152.609 119.577L172.594 101.574C175.401 106.199 177.548 111.484 178.87 117.264ZM164.666 91.6645L143.03 107.024C141.213 108.181 138.736 107.85 137.249 106.034C136.754 105.538 136.588 104.877 136.423 104.217L134.937 77.2954C146.333 78.6167 156.738 83.7367 164.666 91.6645ZM116.769 78.1213C118.586 77.7909 120.237 77.4606 122.054 77.1303L120.568 103.556C120.403 105.868 118.586 107.85 116.108 107.85C115.448 107.85 114.622 107.685 114.126 107.355L92.16 91.6645C98.9316 84.8929 107.355 80.2684 116.769 78.1213ZM84.2323 101.574L103.886 119.081C105.703 120.568 105.868 123.375 104.382 125.192C103.886 125.853 103.226 126.348 102.4 126.514L76.8 133.946C75.8091 122.715 78.2865 111.319 84.2323 101.574ZM79.7729 146.333L106.034 141.874C108.181 141.708 110.163 143.195 110.658 145.342C110.823 146.333 110.823 147.159 110.493 147.984L100.418 172.263C91.1691 166.317 83.7368 157.234 79.7729 146.333ZM140.057 179.2C136.258 180.026 132.459 180.521 128.496 180.521C122.715 180.521 117.099 179.53 111.814 177.879L124.862 154.261C126.183 152.774 128.33 152.114 130.147 153.104C130.973 153.6 131.634 154.261 132.129 154.921L144.846 177.879C143.36 178.374 141.708 178.704 140.057 179.2ZM172.263 156.243C168.134 162.849 162.684 168.134 156.408 172.263L146.003 147.324C145.507 145.342 146.333 143.195 148.315 142.204C148.976 141.874 149.801 141.708 150.627 141.708L177.053 146.168C176.062 149.801 174.41 153.104 172.263 156.243Z" fill="white"/>
</g>
<defs>
<clipPath id="clip0_2_15022">
<rect width="256" height="249" fill="white"/>
</clipPath>
</defs>
</svg>
