<svg width="256" height="242" viewBox="0 0 256 242" fill="none" xmlns="http://www.w3.org/2000/svg">
<g clip-path="url(#clip0_2_14914)">
<path d="M85.3433 0.00290931H161.096L82.4572 233.001C80.7999 237.91 76.1963 241.217 71.0149 241.217H12.0606C8.17632 241.217 4.52963 239.347 2.26399 236.192C-0.00165558 233.037 -0.608846 228.983 0.632809 225.303L73.898 8.21881C75.5546 3.30738 80.16 0 85.3433 0V0.00290931Z" fill="url(#paint0_linear_2_14914)"/>
<path d="M195.423 156.282H75.2974C73.0119 156.28 70.9577 157.676 70.1192 159.802C69.2807 161.928 69.8288 164.351 71.5007 165.909L148.691 237.955C150.938 240.052 153.897 241.217 156.97 241.217H224.99L195.423 156.282Z" fill="#0078D4"/>
<path d="M85.3433 0.00301795C80.0983 -0.0170209 75.4499 3.37697 73.8719 8.37902L0.723026 225.105C-0.602607 228.8 -0.044328 232.91 2.21908 236.117C4.48248 239.325 8.16698 241.228 12.0926 241.217H72.5685C77.1541 240.398 80.9441 237.175 82.4893 232.78L97.0765 189.789L149.182 238.389C151.366 240.195 154.105 241.194 156.939 241.217H224.705L194.984 156.283L108.341 156.303L161.369 0.00301795H85.3433Z" fill="url(#paint1_linear_2_14914)"/>
<path d="M182.098 8.20719C180.444 3.30367 175.845 0.00292969 170.67 0.00292969H86.2451C91.4199 0.00292969 96.0179 3.30423 97.6729 8.20719L170.941 225.3C172.184 228.981 171.577 233.036 169.311 236.192C167.046 239.348 163.398 241.22 159.513 241.22H243.941C247.826 241.22 251.473 239.347 253.738 236.191C256.002 233.034 256.609 228.981 255.366 225.3L182.098 8.20719Z" fill="url(#paint2_linear_2_14914)"/>
</g>
<defs>
<linearGradient id="paint0_linear_2_14914" x1="95.0011" y1="17.8777" x2="20.8106" y2="237.055" gradientUnits="userSpaceOnUse">
<stop stop-color="#114A8B"/>
<stop offset="1" stop-color="#0669BC"/>
</linearGradient>
<linearGradient id="paint1_linear_2_14914" x1="134.198" y1="126.189" x2="118.161" y2="131.611" gradientUnits="userSpaceOnUse">
<stop stop-opacity="0.3"/>
<stop offset="0.071" stop-opacity="0.2"/>
<stop offset="0.321" stop-opacity="0.1"/>
<stop offset="0.623" stop-opacity="0.05"/>
<stop offset="1" stop-opacity="0"/>
</linearGradient>
<linearGradient id="paint2_linear_2_14914" x1="149.528" y1="11.099" x2="230.502" y2="226.83" gradientUnits="userSpaceOnUse">
<stop stop-color="#3CCBF4"/>
<stop offset="1" stop-color="#2892DF"/>
</linearGradient>
<clipPath id="clip0_2_14914">
<rect width="256" height="242" fill="white"/>
</clipPath>
</defs>
</svg>
