<svg width="64" height="143" viewBox="0 0 64 143" fill="none" xmlns="http://www.w3.org/2000/svg">
<path fill-rule="evenodd" clip-rule="evenodd" d="M35.0534 142.317L31.27 141.025C31.27 141.025 31.7319 121.738 24.8109 120.354C20.1968 115.001 25.5491 -106.659 42.1593 119.615C42.1593 119.615 36.4384 122.476 35.423 127.367C34.3152 132.166 35.0534 142.317 35.0534 142.317Z" fill="white"/>
<path fill-rule="evenodd" clip-rule="evenodd" d="M35.0534 142.317L31.27 141.025C31.27 141.025 31.7319 121.738 24.8109 120.354C20.1968 115.001 25.5491 -106.659 42.1593 119.615C42.1593 119.615 36.4384 122.476 35.423 127.367C34.3152 132.166 35.0534 142.317 35.0534 142.317Z" fill="#A6A385"/>
<path fill-rule="evenodd" clip-rule="evenodd" d="M37.0842 123.676C37.0842 123.676 70.2131 101.898 62.4614 56.5871C54.9869 23.643 37.3605 12.8461 35.423 8.69309C33.3007 5.74024 31.27 0.572754 31.27 0.572754L32.6549 92.2078C32.6549 92.3002 29.7936 120.262 37.0842 123.676Z" fill="white"/>
<path fill-rule="evenodd" clip-rule="evenodd" d="M37.0842 123.676C37.0842 123.676 70.2131 101.898 62.4614 56.5871C54.9869 23.643 37.3605 12.8461 35.423 8.69309C33.3007 5.74024 31.27 0.572754 31.27 0.572754L32.6549 92.2078C32.6549 92.3002 29.7936 120.262 37.0842 123.676Z" fill="#499D4A"/>
<path fill-rule="evenodd" clip-rule="evenodd" d="M29.3325 124.876C29.3325 124.876 -1.76652 103.65 0.0794401 66.277C1.83216 28.9028 23.7955 10.539 28.04 7.21658C30.8089 4.26373 30.9013 3.15597 31.0861 0.203125C33.0236 4.35611 32.6549 62.3088 32.9312 69.1375C33.7618 95.4377 31.4548 119.893 29.3325 124.876Z" fill="white"/>
<path fill-rule="evenodd" clip-rule="evenodd" d="M29.3325 124.876C29.3325 124.876 -1.76652 103.65 0.0794401 66.277C1.83216 28.9028 23.7955 10.539 28.04 7.21658C30.8089 4.26373 30.9013 3.15597 31.0861 0.203125C33.0236 4.35611 32.6549 62.3088 32.9312 69.1375C33.7618 95.4377 31.4548 119.893 29.3325 124.876Z" fill="#58AA50"/>
</svg>
