<svg width="256" height="255" viewBox="0 0 256 255" fill="none" xmlns="http://www.w3.org/2000/svg">
<g clip-path="url(#clip0_2_14725)">
<path d="M126.916 0.0722656C62.0836 0.0722702 66.1321 28.1875 66.1321 28.1875L66.2044 57.3145H128.072V66.0598H41.6307C41.6307 66.0598 0.144531 61.3549 0.144531 126.771C0.144527 192.188 36.3546 189.868 36.3546 189.868H57.965V159.512C57.965 159.512 56.8001 123.302 93.5968 123.302H154.959C154.959 123.302 189.434 123.859 189.434 89.9831V33.9695C189.434 33.9695 194.669 0.0722656 126.916 0.0722656ZM92.8018 19.6589C98.9572 19.6589 103.932 24.634 103.932 30.7894C103.932 36.9448 98.9572 41.9198 92.8018 41.9198C86.6464 41.9198 81.6713 36.9448 81.6713 30.7894C81.6713 24.634 86.6464 19.6589 92.8018 19.6589Z" fill="url(#paint0_linear_2_14725)"/>
<path d="M128.757 254.126C193.589 254.126 189.541 226.011 189.541 226.011L189.469 196.884H127.601V188.139H214.042C214.042 188.139 255.528 192.844 255.528 127.427C255.528 62.0108 219.318 64.3306 219.318 64.3306H197.708V94.6864C197.708 94.6864 198.873 130.896 162.076 130.896H100.714C100.714 130.896 66.2388 130.339 66.2388 164.215V220.229C66.2388 220.229 61.0044 254.126 128.757 254.126ZM162.871 234.54C156.716 234.54 151.741 229.565 151.741 223.409C151.741 217.254 156.716 212.279 162.871 212.279C169.027 212.279 174.002 217.254 174.002 223.409C174.002 229.565 169.027 234.54 162.871 234.54Z" fill="url(#paint1_linear_2_14725)"/>
</g>
<defs>
<linearGradient id="paint0_linear_2_14725" x1="24.6874" y1="22.9237" x2="151.246" y2="148.22" gradientUnits="userSpaceOnUse">
<stop stop-color="#387EB8"/>
<stop offset="1" stop-color="#366994"/>
</linearGradient>
<linearGradient id="paint1_linear_2_14725" x1="102.369" y1="103.381" x2="238.28" y2="231.862" gradientUnits="userSpaceOnUse">
<stop stop-color="#FFE052"/>
<stop offset="1" stop-color="#FFC331"/>
</linearGradient>
<clipPath id="clip0_2_14725">
<rect width="256" height="255" fill="white"/>
</clipPath>
</defs>
</svg>
