<svg width="256" height="193" viewBox="0 0 256 193" fill="none" xmlns="http://www.w3.org/2000/svg">
<g clip-path="url(#clip0_2_15240)">
<path d="M149.333 149.333C96 149.333 50.674 122.62 50.674 90.62C50.674 58.62 90.667 32 144 32C211.357 32 242.572 57.911 242.572 89.911C242.572 121.911 208.165 149.333 149.333 149.333ZM128 0C58.667 0 0 37.333 0 85.333C0 130.667 58.312 168.302 127.646 168.302C196.979 168.302 256 133.333 256 85.333C256 37.333 197.333 0 128 0Z" fill="url(#paint0_linear_2_15240)"/>
<path d="M105.946 51.829V192.938H148.589V138.063C159.25 138.063 165.6 135.735 172.575 148.515C183.236 166.807 196.562 192.938 196.562 192.938H247.2C247.2 192.938 215.218 140.676 212.553 138.063C207.638 132.836 201.892 132.836 193.897 130.223C209.888 127.61 224.796 120.975 229.979 106.759C234.51 93.694 233.977 77.074 224.265 65.929C215.854 57.11 207.223 51.829 185.901 51.829H105.946ZM148.589 81.217H176.573C183.209 81.217 188.566 87.75 188.566 94.282C188.566 100.815 183.236 107.348 176.573 107.348H148.589V81.217Z" fill="#2165B6"/>
</g>
<defs>
<linearGradient id="paint0_linear_2_15240" x1="97.2098" y1="28.6095" x2="175.912" y2="162.239" gradientUnits="userSpaceOnUse">
<stop stop-color="#C9CBCE"/>
<stop offset="1" stop-color="#7B7A81"/>
</linearGradient>
<clipPath id="clip0_2_15240">
<rect width="256" height="193" fill="white"/>
</clipPath>
</defs>
</svg>
